<svg viewBox="0 0 1000 1000" xmlns="http://www.w3.org/2000/svg"><path d="M320.16 370.93a52.7 52.7 0 0 0 11.4 3.41c23.29 4.68 47.62 2 70.4-4.74s44.21-17.35 65.07-28.7c6.94-3.78 14-7.69 21.73-9.19 2.29-.45 5.52 0 5.75 2.32.16 1.71-1.56 2.94-3.06 3.78l-12.49 7c3 0 6.22.54 8.57 2.45s3.58 5.42 2.19 8.11-5.75 3.48-7.54 1a18.44 18.44 0 0 1-13.88 11.41c-2.77.47-5.65.29-8.36 1-2.93.8-5.45 2.63-7.91 4.43-16.42 12-32.9 24.18-51.21 33.05s-38.78 14.35-59 12.13" fill="#ffedd4" className="fill-ffffff"></path><path d="M479 345.59c4.2 0 9.38 1.43 10.31 6.18a4.14 4.14 0 0 1-2 4.67 3.47 3.47 0 0 1-4.4-.73c-.51-.65-1.4-.17-1.64.43a17.58 17.58 0 0 1-8.5 9.15 17.91 17.91 0 0 1-6.53 1.72c-2.63.22-5.29.26-7.79 1.2-4.62 1.75-8.58 5.35-12.53 8.24-4.3 3.14-8.62 6.26-13 9.3-17.19 12-35.73 22.86-56.12 28.31a98 98 0 0 1-35 3.07c-1.72-.17-1.68 2.47 0 2.66 21.29 2.48 42.84-3.91 61.7-13.43a241.36 241.36 0 0 0 28-17.05q6.67-4.6 13.22-9.38l6.74-4.91a43.84 43.84 0 0 1 6.41-4.23c2.87-1.42 5.93-1.4 9-1.74a20 20 0 0 0 7-2.07 19.65 19.65 0 0 0 9.2-10.32l-1.64.43a5.3 5.3 0 0 0 6.13 1.3 5.77 5.77 0 0 0 3.62-5.49c-.05-6.47-6.84-8.95-12.28-8.87a.78.78 0 0 0 0 1.56zM319.77 371.6c5.66 2.58 11.87 3.87 18 4.76a127.62 127.62 0 0 0 18.42 1.33 156.53 156.53 0 0 0 37.44-4.69c24.46-6 47.41-16.72 69.54-28.52 6-3.2 11.91-6.73 18.27-9.19 2.78-1.07 6.12-2.42 9.15-2.34.76 0 2.11.13 2.49.94.57 1.22-1.51 2.34-2.3 2.81a1.33 1.33 0 0 0 1.35 2.3c2-1.13 4.3-3 3.65-5.58-.55-2.2-2.82-3-4.87-3.17-2.7-.16-5.58.85-8.09 1.71a68.88 68.88 0 0 0-8.52 3.65c-5.74 2.85-11.29 6.08-16.95 9.08s-11.58 6-17.47 8.83c-23.73 11.34-48.85 20.15-75.27 21.89a132.51 132.51 0 0 1-22.18-.34c-7.34-.75-15.06-1.82-21.87-4.77-.91-.39-1.71.93-.79 1.34z" fill="#57452b" className="fill-000000"></path><path d="m334.91 288.16 588.33 76.52a42 42 0 0 0 47.18-37.54c6.2-63.08 11.63-181.51-23-258.15a42.05 42.05 0 0 0-54-21.84L332.9 272.34a8.24 8.24 0 0 0-4.5 10.9 8.26 8.26 0 0 0 6.51 4.92z" fill="#f5be75" className="fill-18c4ff"></path><path d="M947.45 69a42.21 42.21 0 0 0-32.6-24.46 41.92 41.92 0 0 0-20 31.78c-6.2 63.07-11.64 181.5 23 258.14a42.18 42.18 0 0 0 32.6 24.46 41.93 41.93 0 0 0 20-31.77c6.17-63.09 11.6-181.52-23-258.15zM354.41 414.69a.78.78 0 0 0 0-1.55.78.78 0 0 0 0 1.55z" fill="#57452b" className="fill-000000"></path><path d="M365.3 384c4.59 1.67 5.12.08 9.95.87-3.78-24.9 5.14-47.52 3.29-72.64a17.06 17.06 0 0 0-1.76-7.38c-1.43-2.47-4-4.12-5.61-6.46s-2-6.16.47-7.6c2.19-1.29 5.9-.34 6.76-2.73a4.18 4.18 0 0 0 0-2.08l-.68-4.3c-.36-2.32-.67-4.92.7-6.83s5.11-1.87 5.52.45c1.84-2.59 6.6-1.9 7.63 1.09 2.44-1.93 6.75.61 6.23 3.68a2.74 2.74 0 0 1 3.45.38 6.81 6.81 0 0 1 1.7 3.33 28.88 28.88 0 0 1-.84 17.42 74 74 0 0 0-2.68 7c-1 3.9-.54 8-.05 12l5 41.11c1.45 11.83 2.9 23.68 3.35 35.6.15 4-1.34 53-71.42 20.74" fill="#ffedd4" className="fill-ffffff"></path><path d="M398.58 280.73c1.24-.67 2.51.35 3.07 1.42a15 15 0 0 1 1.11 4.07 27.78 27.78 0 0 1 .26 8.09 30 30 0 0 1-2.3 8.37 28.6 28.6 0 0 0-2.36 7.32 34.73 34.73 0 0 0 .2 8.82c.36 2.94.73 5.88 1.08 8.82.73 6.11 1.43 12.22 2.17 18.32 1.48 12.09 3 24.17 4.09 36.3.43 4.92.88 9.89.94 14.84v1.74s-.06.86-.1 1.29c0 .24-.05.48-.08.72s0 .25 0 .37c-.05.36 0-.21 0 .17-.18 1.21-.4 2.41-.68 3.6a32.58 32.58 0 0 1-3 8.19 25.92 25.92 0 0 1-17.22 13.06 45.25 45.25 0 0 1-16.81.35 105.57 105.57 0 0 1-24.22-7c-2.41-1-4.8-2-7.17-3.1-1.56-.72-2.93 1.59-1.36 2.32a131.39 131.39 0 0 0 27.26 9.59 57.46 57.46 0 0 0 19.51 1.19c8.73-1.17 16.52-5.51 21.25-13.06a37.28 37.28 0 0 0 5.29-16.67 74 74 0 0 0-.44-12c-1-12.69-2.86-25.31-4.41-37.94-.77-6.28-1.58-12.55-2.37-18.82-.4-3.22-.82-6.44-1.2-9.66a56.08 56.08 0 0 1-.64-9.15 24.33 24.33 0 0 1 2.31-8.51 33.22 33.22 0 0 0 2.24-8.08 30.35 30.35 0 0 0 .09-8.46c-.31-2.32-.73-5.1-2.27-7a3.64 3.64 0 0 0-5.22-.76c-.71.58.19 1.63.94 1.22z" fill="#57452b" className="fill-000000"></path><path d="M364.91 384.66a9.83 9.83 0 0 0 4.9 1.2 31.51 31.51 0 0 1 5.14.06 1.12 1.12 0 0 0 1.36-1.35c-2.51-16.88.94-33.55 2.85-50.29.93-8.2 1.59-16.77.47-25a13.7 13.7 0 0 0-1.81-5.5 25.7 25.7 0 0 0-3.59-4.06 9.53 9.53 0 0 1-2.71-3.85c-.35-1.16-.49-2.78.52-3.68s2.94-.83 4.28-1.12a4.28 4.28 0 0 0 3.36-2.54 5.74 5.74 0 0 0 .06-2.94c-.19-1.27-.4-2.54-.61-3.81-.33-2.09-.76-4.39.47-6.27.95-1.45-1.37-2.79-2.32-1.35-2.21 3.33-.86 7.81-.29 11.44.11.7.45 1.76-.12 2.32a3.32 3.32 0 0 1-1.72.56 12.81 12.81 0 0 0-4.09 1c-2.8 1.54-3.07 5.17-2 7.87 1.33 3.36 4.7 5.14 6.48 8.18a14.1 14.1 0 0 1 1.54 5.81c.21 2.22.32 4.46.36 6.69.07 4.28-.13 8.56-.46 12.83-.64 8.48-2 16.87-2.83 25.32-.94 9.65-1.4 19.33 0 29l1.35-1.36a21.22 21.22 0 0 0-5.1-.16 18.17 18.17 0 0 1-4.93-.4c-.82-.15-1.43 1-.6 1.42z" fill="#57452b" className="fill-000000"></path><path d="M306.24 271.77a42.59 42.59 0 0 0 7.76 18.54c1.36 1.83 2.84 4.54 1.17 6.1a10.45 10.45 0 0 1-1.67 1c-2.4 1.51-2.43 4.92-2.29 7.74.32 6-.11 12.79-4.51 16.92s-11 4.15-16.83 3.07c-16-3-31.19-14.31-35-30.14-1.79-7.41-1-15.26 1.13-22.57 1.61-5.44 4.1-10.79 8.23-14.68 7.46-7 19.28-8 28.8-4.21 6.52 2.59 12.8 11.22 13.21 18.22" fill="#ffedd4" className="fill-ffffff"></path><path d="M255.61 294.81c-1.4-6.85-.67-14 1.14-20.71 1.57-5.81 4.06-11.64 8.58-15.76a23.71 23.71 0 0 1 14.93-5.76c5.21-.23 11.1.75 15.44 3.78a23.64 23.64 0 0 1 9.67 15.41c.14 1.08 1.76 1.16 1.75 0-.07-5.88-3.66-11.67-7.89-15.54-4.44-4.07-10.43-5.76-16.36-6a27.45 27.45 0 0 0-17 4.66c-5.32 3.79-8.55 9.6-10.56 15.7a43.21 43.21 0 0 0-1.22 24.64.77.77 0 0 0 1.48-.41z" fill="#57452b" className="fill-000000"></path><path d="M305.48 271.77a40.33 40.33 0 0 0 4.6 14.6c1.23 2.2 2.95 4.13 4.1 6.36.39.77.92 1.94.29 2.72-.37.46-1.06.64-1.55.95a5.51 5.51 0 0 0-1.21 1.05c-2.79 3.24-1.44 8.53-1.61 12.41-.2 4.48-1.33 9.34-5.12 12.16-4.3 3.2-10.06 2.77-15.09 2.25-1-.1-1.17 1.48-.23 1.72 4.61 1.2 9.86 1.32 14.27-.67s7.11-6.31 8-11a34.58 34.58 0 0 0 .53-7.25c0-2.25-.47-4.73.35-6.89s3.72-2.29 4.21-4.77-1.23-4.56-2.51-6.36a46.36 46.36 0 0 1-7.51-17.48c-.17-.84-1.61-.66-1.5.2z" fill="#57452b" className="fill-000000"></path><path d="m304.16 283.56-.33.17a2.56 2.56 0 0 0-.46.33 2.22 2.22 0 0 0-.59.74 2.33 2.33 0 0 0-.2.52 2.84 2.84 0 0 0-.05.42 3 3 0 0 0 .06.42 1.74 1.74 0 0 0 .56 1l.24.18a.8.8 0 0 0 .42.13 1.16 1.16 0 0 0 .73-.13 1.37 1.37 0 0 0 .23-.17 1.32 1.32 0 0 0 .23-.17 2.14 2.14 0 0 0 .42-.73 1.65 1.65 0 0 0 .1-.58 2.1 2.1 0 0 0-.05-.43 1.38 1.38 0 0 0-.35-.69l-.24-.18a1.13 1.13 0 0 0-1.07-.06 1.12 1.12 0 0 0-.63.63 1.19 1.19 0 0 0 .06 1.07.08.08 0 0 1 0 .05l-.12-.29a.59.59 0 0 1 .05.19v-.32a1.15 1.15 0 0 1 0 .19l.05-.31a1.8 1.8 0 0 1-.05.19l.11-.28a.51.51 0 0 1-.09.16l.18-.23a.86.86 0 0 1-.13.14l.23-.18h1.15l.23.17a.86.86 0 0 1-.14-.13l.18.23a1.4 1.4 0 0 1-.1-.16l.12.26a1.25 1.25 0 0 1-.09-.37v.29a1.06 1.06 0 0 1 0-.31v.27a2 2 0 0 1 .09-.33l-.1.24a5.27 5.27 0 0 1 .53-.85l.08-.19a.54.54 0 0 0 0-.31.68.68 0 0 0-.21-.44.79.79 0 0 0-.94-.12zM279.69 286.94h-.05.12-.06.09c.09 0-.14-.08 0 0l.08.05c.09.05 0 0 0 0a.65.65 0 0 1 .09.08l.07.07c.06.06-.1-.15 0 0a1.74 1.74 0 0 1 .11.18.3.3 0 0 0 0 .1c0-.1-.05-.12 0-.06v.05a2.09 2.09 0 0 1 .08.23 3.58 3.58 0 0 1 .09.45.43.43 0 0 1 0 .11v.22a1 1 0 0 1 0 .24.41.41 0 0 1 0 .11s0 .14-.05.21v.05c.07-.12 0 0 0 .05l1.13-.3c.11.09.14.12.09.07s0 0 .08.1-.08-.15 0 0v.13-.06s-.06.25 0 .1 0 .08 0 .08v-.05c0-.06 0 0-.08.1.09-.1-.19.12-.06 0a.86.86 0 1 0-.87-1.49 1.52 1.52 0 0 0-.49.52 1.56 1.56 0 0 0-.16.7 1.47 1.47 0 0 0 .65 1.2.83.83 0 0 0 1.14-.3 3.05 3.05 0 0 0 .28-1.46 5 5 0 0 0-.27-1.33 2.58 2.58 0 0 0-.91-1.29 1.76 1.76 0 0 0-1.46-.27.77.77 0 0 0-.53.93.78.78 0 0 0 .93.53zM299.12 277h.1l-.52-.22c.46.48 1.2.26 1.77.18l1.32-.2c.91-.14 1.83-.24 2.73-.44a1 1 0 0 0 .71-1.26 1 1 0 0 0-1.25-.71c-.89.13-1.77.36-2.65.56l-1.3.28c-.48.11-1.22.18-1.45.7l.44-.34h-.09a.72.72 0 0 0-.52.79.71.71 0 0 0 .71.62zM290.32 344.47c.66-2.89 1.26-5.79 1.86-8.7s1.38-5.77 1.74-8.68c.15-1.26-1.88-1.49-2.18-.3-.37 1.43-.53 2.94-.77 4.4s-.47 2.82-.71 4.23c-.48 2.88-1 5.76-1.39 8.65-.14.93 1.23 1.37 1.45.4z" fill="#57452b" className="fill-000000"></path><path d="m258.19 331.6 30.63 5.69c2.85.53 6.25 1.57 6.88 4.39a15.32 15.32 0 0 1-.09 3.7c-.09 4.6 4 8 7.21 11.28 7.79 8 12 19 12.74 30.17s-1.69 22.29-5.79 32.66c-2.32 5.86-8.65 27.53-9.41 33.8-1 8 1.54 16.51-1.68 23.87-3.05 7-10.52 11-17.92 12.73-19.79 4.72-46.54 4.07-63.25-7.55-4.3-3-8.61-6.44-10.6-11.28-2.2-5.34-1.18-11.5.94-16.88s5.28-10.28 7.51-15.61c6.9-16.5 13.83-59 20.87-75.45" fill="#f5be75" className="fill-18c4ff"></path><path d="M258.23 339.71a73.57 73.57 0 0 0 3.69-8.32c.53-1.44 1-2.9 1.46-4.37a16 16 0 0 0 1.05-4.43c0-.91-1.4-1.41-1.82-.49a26.73 26.73 0 0 0-1.16 4.39c-.36 1.38-.76 2.76-1.21 4.12a71.94 71.94 0 0 1-3.33 8.33c-.42.88.86 1.66 1.32.77zM301.71 303.32a.76.76 0 0 0 .93.32.81.81 0 1 0-.73-1.45c-.74.4-.59 1.44-.48 2.13a5.12 5.12 0 0 0 .64 1.72 4.34 4.34 0 0 0 1.43 1.49.92.92 0 0 0 1.2-.24.91.91 0 0 0-.07-1.22 6.38 6.38 0 0 1-.74-.73c-.06-.06-.11-.14-.17-.2s.11.15 0 .05a.83.83 0 0 0-.08-.12 4.25 4.25 0 0 1-.27-.46l-.11-.22c-.05-.1.07.18 0 0s0-.08 0-.11a4.44 4.44 0 0 1-.15-.52c0-.08 0-.17-.05-.26s0 .17 0 .05a.49.49 0 0 1 0-.12v-.26c0-.09-.06-.42 0-.23s0 .08 0 0c0-.21-.11-.05-.3.49l-.39.1-.38-.11-.12-.09-.19-.33c.05.13.05 0 0-.29l.18-.32.32-.18.56.07a.74.74 0 0 0-.87.11.73.73 0 0 0-.11.86z" fill="#57452b" className="fill-000000"></path><path d="M301.85 259c-1.16 9.66-7.65 17.74-14.08 25-.46.53-1.1 1.11-1.77.9a2.11 2.11 0 0 1-.95-.92 6.79 6.79 0 1 0-7.61 10.43c.62.21 1.38.42 1.55 1.05a1.7 1.7 0 0 1-.17 1.08 114.21 114.21 0 0 1-11.71 22.19c-1.46 2.16-3.18 4.4-5.69 5.1a1.13 1.13 0 0 1-.83 0 1.3 1.3 0 0 1-.5-.65l-7.41-15.87a68.71 68.71 0 0 1-4.34-10.86 55.2 55.2 0 0 1-1.53-8.87 31.37 31.37 0 0 1 .05-9.33 28 28 0 0 1 2.46-6.76c3.77-7.75 9.48-15.13 17.57-18.08 1.45-.53 2.94-.91 4.38-1.42s2.86-1.18 4.32-1.68c8.34-2.8 17.42.12 25.62 3.29a16.83 16.83 0 0 1 4.17 2.1 8.8 8.8 0 0 1 .7 12.79 7.53 7.53 0 0 0-6.08-8.69" fill="#57452b" className="fill-000000"></path><path d="M301.08 258.79c-1.07 7.4-5.22 13.83-9.84 19.53-1.19 1.48-2.43 2.92-3.68 4.34-.48.55-1 1.52-1.58.82a11 11 0 0 0-1.61-1.66 7.82 7.82 0 0 0-12.62 6.7 8.12 8.12 0 0 0 5.08 6.79c.22.08.91.2 1 .39s-.18.87-.32 1.19c-.43 1-.84 2-1.27 2.93q-1.18 2.73-2.52 5.38a114.9 114.9 0 0 1-6 10.52 39.26 39.26 0 0 1-3.15 4.52 9.78 9.78 0 0 1-1.8 1.72 8 8 0 0 1-.94.55 3.14 3.14 0 0 1-.58.22c-.41.07.06.24-.17 0s-.5-1.07-.68-1.45l-.61-1.32-1.44-3.09-2.67-5.73c-1.77-3.77-3.66-7.53-5.12-11.44a49.61 49.61 0 0 1-2.67-12.35c-.44-4.2-.48-8.24 1-12.25a46 46 0 0 1 5-9.35 34.09 34.09 0 0 1 6.79-7.54 27.61 27.61 0 0 1 9.32-4.63c2-.62 3.88-1.51 5.85-2.18a21.57 21.57 0 0 1 5.84-1.07 36.51 36.51 0 0 1 12 1.83c1.92.58 3.81 1.25 5.69 1.95a20.42 20.42 0 0 1 5.22 2.45 7.61 7.61 0 0 1 2.55 7.58 7 7 0 0 1-1.92 3.54l1.92 1.11a8.81 8.81 0 0 0-6.87-10.2c-1.54-.29-2.15 2.12-.64 2.33a6.31 6.31 0 0 1 5.3 7.26 1.16 1.16 0 0 0 1.91 1.12 9.9 9.9 0 0 0-2.57-15.58 60.32 60.32 0 0 0-12-4.29 33.43 33.43 0 0 0-12.81-1.16 24.55 24.55 0 0 0-6 1.6c-2.09.84-4.19 1.5-6.32 2.22a26.62 26.62 0 0 0-9.14 5.36 39 39 0 0 0-7 8.43 42.24 42.24 0 0 0-5 10.54c-1.21 4.26-.78 8.72-.24 13a48.52 48.52 0 0 0 3.38 13c1.74 4.14 3.73 8.17 5.63 12.23l3 6.38c.64 1.37 1.22 3.93 3.12 3.93 1.64 0 3.35-1.32 4.46-2.42a27.25 27.25 0 0 0 3.38-4.46 114.88 114.88 0 0 0 6.54-11.26q1.5-3 2.82-6c.41-.92.81-1.85 1.16-2.79a5.19 5.19 0 0 0 .64-2.79c-.36-1.66-2.29-1.7-3.49-2.46a6 6 0 0 1-2.72-4.56 5.76 5.76 0 0 1 7.06-5.85 6.06 6.06 0 0 1 2.31 1.12c.71.56 1.1 1.38 1.78 1.94 1.5 1.23 3-.06 4-1.22 5.17-5.92 10.26-12.23 12.6-19.86a30.92 30.92 0 0 0 1.11-5.46c.1-.89-1.44-1.11-1.57-.22z" fill="#57452b" className="fill-000000"></path><path d="M258.49 312.88c-.9 3.89-4.09 6.95-7.69 8.68s-7.62 2.35-11.57 2.95L222.75 327c-3.37.51-6.82 1.05-9.82 2.67a22.39 22.39 0 0 0-9 9.72 14.88 14.88 0 0 0-1 11.15c.91 2.66 2.24 4.85 1.43 7.73s-3 5.06-4 7.79a11.6 11.6 0 0 0 1 10 11.83 11.83 0 0 0 3.78 4c2.49 1.57 5 1.77 5.7 5.18s-.77 6.39 1.36 9.66a11.5 11.5 0 0 0 8.24 4.9c4.66.52 9.29-1.42 13.18-4 4.32-2.92 8.15-6.92 9.68-11.91.88-2.88 1-6 1.93-8.81 1.55-4.55 5.15-8 8.07-11.85s5.32-8.71 3.89-13.29a16.44 16.44 0 0 1-1.07-3.55c-.13-2 1.15-3.82 2.57-5.24s3.07-2.67 4-4.44c1.63-3 .85-6.71 1.06-10.14a17 17 0 0 1 1.81-6.66" fill="#57452b" className="fill-000000"></path><path d="M257.63 312.64c-2.26 8.59-12.57 9.88-19.93 10.92l-13.84 2c-4.16.58-8.46 1.09-12.15 3.25-6.6 3.84-11.8 11.9-10.7 19.7a33.12 33.12 0 0 0 1.76 5.66 6.89 6.89 0 0 1-.61 5.79c-.91 1.71-2.09 3.26-2.88 5a12 12 0 0 0-1 5.6 14 14 0 0 0 5.26 10.1 34.23 34.23 0 0 0 4 2.28 4.15 4.15 0 0 1 2.12 3.75c.11 1.85-.18 3.71.1 5.56a9.44 9.44 0 0 0 2.44 4.89 13.33 13.33 0 0 0 9.82 4.2c7.66 0 15.37-5.27 19.77-11.26 2.44-3.31 3.32-6.95 4-10.92a19.37 19.37 0 0 1 1.9-6 31.09 31.09 0 0 1 3.3-4.76c2.53-3.12 5.26-6.1 6.87-9.84a15.25 15.25 0 0 0 1.33-5.48 16.8 16.8 0 0 0-1.23-5.72c-1.24-3.95 3.84-6.43 5.74-9.21 2.37-3.47 1.45-7.7 1.71-11.61a15.47 15.47 0 0 1 1.61-5.85c.91-1.83-1.84-3.44-2.74-1.61-1.82 3.71-2.07 7.37-2 11.43a10.73 10.73 0 0 1-.94 5.57c-.9 1.57-2.41 2.68-3.67 4a9.89 9.89 0 0 0-2.87 4.73c-.41 2 .42 3.66 1 5.54 1.15 3.72-.56 7.56-2.6 10.63s-4.84 5.86-6.93 9a20.81 20.81 0 0 0-2.41 4.92 52.13 52.13 0 0 0-1.28 6.18c-1.44 7.46-7.45 13.24-14.34 16.06-3.47 1.42-7.52 2-11 .24a9.17 9.17 0 0 1-4-3.59c-.9-1.61-.79-3.36-.73-5.13.1-3.34-.47-6.48-3.58-8.24a24.18 24.18 0 0 1-4-2.32 11.07 11.07 0 0 1-3.19-4.67 10.07 10.07 0 0 1-.4-5.57 17.1 17.1 0 0 1 2.51-5.06 14.09 14.09 0 0 0 2.14-5 10.7 10.7 0 0 0-.86-5.6 16.29 16.29 0 0 1-1.38-5.57 14.4 14.4 0 0 1 1.17-5.86 21.07 21.07 0 0 1 7-8.8c3.37-2.4 7.4-3.05 11.4-3.69l13.29-2.15c7.3-1.19 15.77-2.07 20.56-8.45a12.24 12.24 0 0 0 2.14-4.54.89.89 0 0 0-1.71-.48z" fill="#57452b" className="fill-000000"></path><path d="M253.72 318.67a4.12 4.12 0 0 1 3.49-1.47 11.63 11.63 0 0 1 4.71 1.5 7.77 7.77 0 0 1 3.26 2.54 3.46 3.46 0 0 1 .58 1.5 1.89 1.89 0 0 1-.05.82 8.15 8.15 0 0 0-.41 1 1 1 0 0 0 1.22 1.22c1-.17 1.67-1.5 2-2.36a4.94 4.94 0 0 0 0-3c-.74-2.22-2.69-3.63-4.72-4.6a11.44 11.44 0 0 0-7.11-1.25 5.91 5.91 0 0 0-4.38 3.55c-.34.89 1 1.28 1.45.61z" fill="#f5be75" className="fill-18c4ff"></path><path d="M232.67 464.27a86.07 86.07 0 0 1 34.28 2c7.33 1.93 14.66 4.94 20.51 10.71 7.11 7 1.65 17.3 5.5 27.48 35 92.43 61.86 194.85 61.6 296.86-.1 39.2-2.72 78.32-3.58 117.5-.16 7.2.22 15.62 5 19.74 2.42 2.09 1.48 2.57 4.18 4.06s5.22 4.9 4.43 8.41c-.94 4.1-5.29 4.89-8.74 4.89h-22.88c-4.65 0-9.79-.23-13.2-4.14-2.48-2.85-3.5-7.08-4.42-11.1-15.83-69-31.8-139.29-30.31-211 .31-14.88 1.35-30.07-1.93-44.4-4-17.37-13.84-31.57-21.7-46.8-13.79-26.69-21.79-57.9-22.94-89.53-1-28.43 3.23-57.85-4.14-84.82l-.75 7.42" fill="#57452b" className="fill-000000"></path><path d="M232.87 465a86 86 0 0 1 28.81.91c8.27 1.7 16.69 4.44 23.2 10a14.15 14.15 0 0 1 5.37 10.34c.26 3.57-.11 7.15.09 10.72a36.73 36.73 0 0 0 2.73 11.09q2.37 6.31 4.67 12.66a1076.82 1076.82 0 0 1 31.93 103.16A789.8 789.8 0 0 1 349.53 732c4 37.09 4.2 74.16 2.92 111.4-.66 19.1-1.55 38.18-2.19 57.27-.28 8.66-1.16 17.62-.27 26.26a23.4 23.4 0 0 0 2.57 9.27 14.08 14.08 0 0 0 2.56 3.19c.92.9 1.6 2 2.5 2.86 1.14 1.17 2.73 1.73 3.88 2.91 1.64 1.69 2.65 4.3 1.56 6.54-1.58 3.24-6 3-9.06 3-7.82 0-15.69.28-23.49 0-4.27-.17-8.44-1.23-10.86-5.06-2.24-3.54-2.9-8-3.82-12.05q-3.12-13.6-6.17-27.22c-8.18-36.65-15.68-73.53-19.89-110.88a542.52 542.52 0 0 1-3.54-56c-.16-18.1 2-36.59-1.06-54.52-2.89-16.64-11.69-31-19.67-45.59A207.79 207.79 0 0 1 246.67 596a221.65 221.65 0 0 1-7-52.64c-.27-18.12 1.18-36.27 0-54.38a128.58 128.58 0 0 0-4-25.27 1.29 1.29 0 0 0-2.52.34c-.24 2.47-.46 4.95-.71 7.42-.16 1.6 2.35 1.59 2.51 0q.38-3.72.77-7.42l-2.52.35c4.81 18.23 4.58 37.13 4.18 55.84-.39 18.21-.41 36.26 2.35 54.31a213.56 213.56 0 0 0 14.16 50.53c6.77 16.09 16.84 30.51 23.57 46.59a85.75 85.75 0 0 1 6.41 26.72c.72 9.3.33 18.64.1 28a507.25 507.25 0 0 0 1.95 58c3.41 38.13 10.51 75.82 18.64 113.19q3 13.89 6.21 27.74 1.62 7.15 3.27 14.29c.87 3.8 1.63 7.85 3.73 11.21 4.16 6.64 12 6.26 18.93 6.28h11.59c3.56 0 7.3.37 10.82-.23 6.39-1.09 9-7.57 4.8-12.74a16.35 16.35 0 0 0-3.68-3c-1.12-.78-1.74-2-2.7-2.95a16.12 16.12 0 0 1-4.75-9.42 64.46 64.46 0 0 1-.43-11.95q.18-7.35.42-14.69c.33-10 .73-19.91 1.13-29.86 1.57-38.76 3.2-77.54.4-116.29a745.49 745.49 0 0 0-16.91-110.67 1002.94 1002.94 0 0 0-31-107.28q-4.44-12.81-9.16-25.51c-1.53-4.13-3.6-8.33-4.32-12.7-.64-3.89-.32-7.83-.44-11.76-.1-3.24-.57-6.58-2.33-9.38-1.9-3-5.07-5.33-8.05-7.21-7.07-4.44-15.49-6.65-23.67-7.9a88.84 88.84 0 0 0-26 0c-1 .14-.56 1.63.41 1.5z" fill="#57452b" className="fill-000000"></path><path d="M267 466.23c-28.95-6.79-47.4-5-53.55 3.79-4.41 6.28-10.14 12.51-12.64 19.82-10.13 29.51-16.49 60-22.33 90.61-3.1 16.22-5.77 32.54-9.55 48.63q-1.55 6.57-3.34 13.09c-3.13 11.3-6.11 22.74-11.35 33.23-5.37 10.75-13 20.22-20.81 29.31-20.61 23.85-49.54 64.75-66 91.64-8 13.11-14.46 27.35-24.63 38.86-8 9.09-19 18.35-17.67 30.39.56 5 3.26 9.4 6.17 13.46a109.64 109.64 0 0 0 20 21.18c4.18 3.39 14.14 9.11 14.56.54.54-10.91 1-21.81 1.87-32.69.11-1.35 7.11-5.46 8.34-6.42q4.91-3.81 9.78-7.67c43.82-34.79 90.42-84.17 119.43-132.56 13.53-22.57 24.65-46.7 31.52-72.14 6.36-23.53 10-47.7 12.69-71.91.63-5.77 1.21-11.53 1.78-17.3 1.64-16.69 3-33.61.26-50.17-.68-4.21-2.56-9.27-6.8-9.7" fill="#57452b" className="fill-000000"></path><path d="M267.19 465.37c-13.7-3.28-29.3-6.57-43.3-3-4 1-8 2.84-10.75 6.09-2.22 2.68-4.22 5.63-6.29 8.43a52.94 52.94 0 0 0-6.45 10.66c-1.83 4.35-3.12 9-4.51 13.48s-2.8 9.32-4.09 14c-2.58 9.37-4.88 18.82-7 28.31-4.32 19.3-7.87 38.76-11.48 58.2s-7.81 38.51-13.82 57.21a105.61 105.61 0 0 1-11.81 25.51c-4.93 7.56-10.77 14.4-16.61 21.26-20.26 23.76-38.45 49.5-55.5 75.64-4 6.07-7.88 12.19-11.54 18.46-4.45 7.62-8.53 15.47-13.31 22.9-4.62 7.18-10.22 13.26-15.92 19.57-4.76 5.3-9.71 11.31-10.81 18.58-1.23 8.34 3.44 15.44 8.28 21.77a106.32 106.32 0 0 0 18.42 18.87c3.21 2.53 8.48 6.21 12.84 4.94 2.14-.63 3.13-2.6 3.4-4.68.61-4.78.5-9.75.75-14.56.27-5.17.57-10.33.93-15.49.11-1.54-.18-2.92 1-4a29.48 29.48 0 0 1 3.4-2.47c6.22-4.15 12-8.91 17.81-13.63 13.77-11.18 27-23.07 39.6-35.52 25.66-25.26 49.38-52.87 69.05-83.08a325.26 325.26 0 0 0 26-48 283.21 283.21 0 0 0 16.8-53.22 563.92 563.92 0 0 0 8.9-58c2.1-19.43 4.67-39.25 2.43-58.78-.64-5.6-1.45-14.94-8.56-16-1.73-.26-2.48 2.39-.73 2.66 3.64.55 4.91 4.49 5.58 7.64a90.69 90.69 0 0 1 1.54 14 211.73 211.73 0 0 1-.81 28.49c-1.59 19-3.6 38.11-6.6 57-2.93 18.47-6.81 36.9-12.8 54.64a288.55 288.55 0 0 1-22.23 49.4c-17.14 30.45-38.95 58.16-62.73 83.67q-18 19.29-37.63 36.88-9.39 8.4-19.16 16.36C83.72 854.22 78 858.94 71.84 863c-1.59 1.06-4.12 2.36-5 4.13-.65 1.23-.44 3-.53 4.35-.19 2.58-.35 5.16-.51 7.74-.29 4.88-.54 9.75-.78 14.63-.11 2.29-.11 4.61-.33 6.89-.13 1.28-.36 2.7-1.74 3.18-2.14.74-5.07-.9-6.86-1.91a44.3 44.3 0 0 1-7.45-5.63A103.22 103.22 0 0 1 31 876.6c-2.46-3.67-4.63-7.75-4.81-12.26a20 20 0 0 1 2.7-10.44c3.62-6.61 9.32-11.79 14.29-17.36 11.11-12.44 18-27.87 26.7-41.94a800.17 800.17 0 0 1 52.57-74.75c9.7-12.26 20.78-23.6 29-37 9.39-15.4 13.81-33.62 18-51C174 613.09 177 594 180.67 575c3.59-18.56 7.44-37.07 12.3-55.34 2.42-9.14 5.1-18.21 8.1-27.17a45.81 45.81 0 0 1 5.68-11.5c2.3-3.37 4.87-6.54 7.25-9.85 6.06-8.44 18.91-8.34 28.19-7.78a153.8 153.8 0 0 1 24.52 3.71c1.13.26 1.61-1.46.48-1.73z" fill="#57452b" className="fill-000000"></path><g fill="#f5be75" className="fill-18c4ff"><path d="M62.92 802.28c15 3.2 29.83 10.63 36.89 24.93a37.62 37.62 0 0 1 3.41 11.84c.2 1.38 2.46 1 2.43-.33-.21-7.66-3.91-15.14-8.73-20.93a48 48 0 0 0-19.82-13.7 62.41 62.41 0 0 0-13.71-3.48c-1.08-.15-1.58 1.43-.47 1.67zM72.67 861c.12.34.23.68.32 1a4.87 4.87 0 0 1 .12.52v.77a.77.77 0 0 1 0 .15v.54a7.79 7.79 0 0 1 0 1.08.92.92 0 0 0 1.83 0 9.74 9.74 0 0 0-.27-2.41 10.63 10.63 0 0 0-.87-2.23.72.72 0 0 0-.89-.29.7.7 0 0 0-.41.84zM78.33 855.16a1.08 1.08 0 0 0-.16.82l.07.22a5.44 5.44 0 0 1 .15.54c.1.35.18.72.26 1.08a8 8 0 0 1 .2 1.09v.91a1 1 0 0 0 .89 1 1 1 0 0 0 1.26-.72l.18-.8a1 1 0 1 0-2-.56l-.16.81 2 .27a14.87 14.87 0 0 0-.41-2.49 9.3 9.3 0 0 0-.37-1.09c-.09-.22-.18-.44-.28-.66a2.55 2.55 0 0 0-.13-.29 1.11 1.11 0 0 0-.67-.45.71.71 0 0 0-.8.32zM84.79 850.18c.19 1 .57 1.93.76 2.92 0 .25.09.5.13.75a1.11 1.11 0 0 1 0 .17v.43c0 .56.08 1.11.16 1.66a1 1 0 0 0 1.06.69 1 1 0 0 0 .83-.95 10.57 10.57 0 0 0-.43-3.25 9 9 0 0 0-1.16-3 .78.78 0 0 0-1.42.6zM93.46 844.61a12.63 12.63 0 0 1 1 6.48 1 1 0 0 0 1 1 1 1 0 0 0 1-1 13.51 13.51 0 0 0-1.61-7.29.81.81 0 0 0-1.09-.29.83.83 0 0 0-.29 1.1zM303.37 892.47c16.11-1.65 32.18-3.59 48.25-5.5 1.45-.17 1.46-2.47 0-2.29-16.16 2-32.32 4-48.45 6.28-.85.12-.66 1.6.2 1.51zM350 903.91h.41a3.21 3.21 0 0 0 .53-.07h.12-.06H351.57a12.19 12.19 0 0 1 1.6 0 1 1 0 0 0 0-2 14.35 14.35 0 0 0-1.85.21c-.26 0-.53.1-.79.16a3.68 3.68 0 0 0-.91.39.75.75 0 0 0-.34.82.76.76 0 0 0 .71.54zM349.41 911.72a6.18 6.18 0 0 0 .86 0l.82-.1 1.69-.2a1.14 1.14 0 0 0 .72-.3 1 1 0 0 0 .28-.86 1 1 0 0 0-1.27-.84l-1.66.4-.85.18a6.23 6.23 0 0 0-.83.28.74.74 0 0 0 .2 1.46zM349.27 920.35c.55-.09 1.08-.31 1.62-.45.27-.06.53-.12.8-.16h.34-.14l.67-.09h-.27l.47-.06a1.06 1.06 0 0 0 .73-.3 1 1 0 0 0 .3-.73 1 1 0 0 0-1-1 10.23 10.23 0 0 0-2.19.43c-.33.1-.64.22-1 .35l-.59.25a3.17 3.17 0 0 0-.56.4.83.83 0 0 0-.13 1 .87.87 0 0 0 .94.38zM351.39 927a.79.79 0 0 0-.87-.37.83.83 0 0 0-.48.38 1 1 0 0 0 .17 1.17 1.77 1.77 0 0 0 1.75.24 3.31 3.31 0 0 0 2-1.67 1.15 1.15 0 0 0 .14-.55v-.28a1 1 0 0 0-.63-.7 1 1 0 0 0-.83 0 .87.87 0 0 0-.35.22 1 1 0 0 0-.27.48v.06l.11-.26a2.51 2.51 0 0 1-.26.45l.13-.17a2.09 2.09 0 0 1-.42.42l.22-.17a2.43 2.43 0 0 1-.52.3l.25-.1a2.75 2.75 0 0 1-.49.14 2 2 0 0 0-.64.23l.21-.09h.46l.2.08.16.12.12.16.08.19v.4l-.2.34-.15.12-.18.08a.74.74 0 0 0 .44-1.08zM284.9 349.07c6.58-3.59 14.77-1.24 21.57 1.91 14.09 6.55 26.58 16.24 40.88 22.28 4.88 2.06 9.94 3.68 14.88 5.58a11.32 11.32 0 0 1 3.18 1.65c1.75 1.43 2.53 3.7 3.11 5.88a64.34 64.34 0 0 1-.66 35.16c-1.69 5.53-4.61 11.31-9.95 13.52A11.92 11.92 0 0 1 345.7 433c-2.78-2.49-4.89-6.56-8.62-6.61a16.83 16.83 0 0 0-4.2 1c-3.63.9-7.53-.23-10.66-2.26a36.7 36.7 0 0 1-8-7.77c-1.42-1.73-3-3.59-5.22-3.93-1.49-.24-3 .28-4.5.38-4.5.28-8.63-3.58-9.42-8-.29-1.64-.21-3.37-.84-4.91-1.49-3.7-6.29-4.9-8.56-8.19-1.13-1.63-1.54-3.63-2.26-5.48s-2-3.7-3.9-4.18"></path></g><path d="M314.89 416.89a15.24 15.24 0 0 0-3.51-3.74 7.43 7.43 0 0 0-5.41-.81 7.81 7.81 0 0 1-5.4-.86 9.08 9.08 0 0 1-3.42-3.64c-.88-1.69-.89-3.52-1.17-5.37a8.4 8.4 0 0 0-2.1-4.56c-2.17-2.38-5.61-3.49-7.33-6.3-1.15-1.89-1.38-4.18-2.46-6.1a7.08 7.08 0 0 0-4.31-3.57 1.05 1.05 0 0 0-.57 2c1.68.56 2.48 2.4 3.06 3.92a23.69 23.69 0 0 0 2.27 5.39c1.81 2.63 4.84 3.82 7.06 6 2.57 2.55 1.64 6.46 3.13 9.56a10.84 10.84 0 0 0 7.37 6c2.16.41 4.08-.34 6.21-.34s3.93 1.82 5.33 3.38c.6.66 1.81-.24 1.25-1z" fill="#57452b" className="fill-000000"></path><g fill="#ffedd4" className="fill-ffffff"><path d="M283.92 351.51c-2-.62-3 1.81-3.66 3.24a33.25 33.25 0 0 0-2.27 6.58 36.83 36.83 0 0 0-.5 13.72c.18 1.22 2 .7 1.86-.52a34.21 34.21 0 0 1 .2-11.33 38.15 38.15 0 0 1 1.43-5.36c.32-.92.68-1.84 1.08-2.73.29-.67.73-2.17 1.66-2.09s1-1.26.2-1.51zM296.27 351.11c-1.77 3.2-3.46 6.54-3 10.31s2.4 7 2.46 10.73a6.24 6.24 0 0 1-1.61 4.68c-1 1-2.22 1.75-2.58 3.22-.42 1.71.38 3.52.14 5.28a9.14 9.14 0 0 1-2.36 4.94c-.83.9.52 2.26 1.35 1.35a11 11 0 0 0 2.83-9.1c-.17-1.12-.43-2.11.41-3 .49-.54 1.11-1 1.61-1.5a7.28 7.28 0 0 0 1.86-4.06c.52-3.57-1-6.82-1.94-10.18a11.68 11.68 0 0 1-.33-6 24.29 24.29 0 0 1 2.54-5.85c.48-.88-.85-1.66-1.34-.78zM313.09 358.25c1.56 1.66.69 4.16-.21 5.92s-2.09 3.67-2.19 5.82 1.36 4.67.39 6.87c-.72 1.64-2.18 2.84-2.79 4.56-.71 2 .29 3.86.78 5.8a21.41 21.41 0 0 1 .59 6.33 21.75 21.75 0 0 1-1.29 6.22c-.74 2.06-2 3.7-3 5.62a1 1 0 0 0 1.52 1.17c2.36-2.21 3.69-6.16 4.33-9.24a23.72 23.72 0 0 0-.09-10.27c-.4-1.67-1.56-3.57-.8-5.26.62-1.42 1.82-2.51 2.49-3.91a7.42 7.42 0 0 0 .29-4.92 13.73 13.73 0 0 1-.48-3 7.69 7.69 0 0 1 .85-3c1.36-3 3.54-6.92.67-9.78-.7-.7-1.75.36-1.08 1.08zM332 368a7.59 7.59 0 0 1 .59 6.11c-.65 1.87-1.89 3.45-2.13 5.47-.44 3.61 1.7 6.79 1.9 10.32.11 2.16-1.08 3.59-1.94 5.45a16.56 16.56 0 0 0-1.36 5.76c-.33 4.15.42 8.65-1.48 12.52a8.22 8.22 0 0 1-1.93 2.62c-.67.59-1.78.93-2.15 1.79a1.37 1.37 0 0 0 2.44 1.25 1.11 1.11 0 0 0-.17-1.31l-.09-.1c-.83-.85-2.43.3-1.69 1.31l.07.1.17-1.31.36-.18 1 .56-.09-.14.11.87c.07-.25 1.4-.95 1.69-1.21a9.76 9.76 0 0 0 1.63-1.94 13.29 13.29 0 0 0 1.89-5c.71-4 0-8.14.79-12.12.4-2 1.46-3.54 2.26-5.37a8.35 8.35 0 0 0 .46-4.74c-.53-3.27-2.69-6.66-1.7-10 .59-2 1.81-3.62 2.05-5.72a9.44 9.44 0 0 0-1.27-5.78.8.8 0 0 0-1.38.8zM353.61 378.89c1.65.78 1.4 4.06 1.32 5.6a17.05 17.05 0 0 1-1.62 6.47c-.86 1.81-2.21 3.49-2.35 5.56a7.32 7.32 0 0 0 .4 2.62 6.78 6.78 0 0 1 .61 2.92c-.26 1.52-2.08 2.29-2.47 3.85a5.06 5.06 0 0 0 .55 3 14.77 14.77 0 0 1 .7 2.63 14.63 14.63 0 0 1-.27 6 22.21 22.21 0 0 1-2.53 5.35 1.07 1.07 0 0 0 1.68 1.29c2.24-2.25 3.27-6 3.51-9a16.9 16.9 0 0 0-.38-5 16 16 0 0 0-.7-2.23c-.41-1.08-.52-1.63.25-2.51.92-1 1.8-2 1.89-3.43.09-1.72-.93-3.19-1.1-4.85-.2-1.94 1.3-3.7 2.06-5.39a19.33 19.33 0 0 0 1.45-10.94c-.22-1.42-.82-3.07-2.42-3.34-.77-.12-1.42 1-.58 1.38zM263.65 345.22a19.52 19.52 0 0 1 16.46 2.24c1 .65 1.93-.95.94-1.61a19.71 19.71 0 0 0-17.79-2.06c-.88.33-.54 1.72.39 1.43zM275.81 352.3a.88.88 0 0 0 0-1.76.88.88 0 0 0 0 1.76z"></path></g><g fill="#f5be75" className="fill-18c4ff"><path d="M226.75 552.46a177.71 177.71 0 0 0 15.9 45.68c.51 1 1.94.12 1.47-.87a220.16 220.16 0 0 1-9.39-22.27 188.61 188.61 0 0 1-6.42-23c-.22-1-1.78-.59-1.56.43zM200.45 493.3l5.29-.2a.87.87 0 0 0 .85-.86.86.86 0 0 0-.85-.85l-5.29.32a.8.8 0 1 0 0 1.59zM235 494.12c7.18-1.58 14.14.11 21.22 1.28 1.13.19 1.64-1.48.48-1.75-7.12-1.69-14.92-2.81-22.14-1.15-1.06.24-.62 1.86.44 1.62zM285.44 502.82a129.25 129.25 0 0 1-9.38 15.28l1.86.24a12.1 12.1 0 0 1 .11-4l.15-.84c0-.16.05-.31.08-.46s0-.26-.24.07l2 .31c1.39.3 2-1.84.59-2.12a7.61 7.61 0 0 0-3.1-.28 2 2 0 0 0-1.36 1.77 17 17 0 0 0-.18 6.07c.18.93 1.4.91 1.86.25a117.4 117.4 0 0 0 9-15.52c.44-.9-.89-1.7-1.36-.79z"></path></g><path d="M332.7 277.12c1.87 2.06 1.3 5 1.13 7.55-.07 1 1.59 1.23 1.74.23.47-3 .48-6.6-1.72-8.93-.72-.76-1.85.38-1.15 1.15zM382.1 274a11.63 11.63 0 0 1 .83 1.35l.17.34a1.42 1.42 0 0 0 .08.18s.06.15.05.11c.08.2.17.4.27.7a6 6 0 0 1 .19.73c0 .06 0 .14 0 0a1.21 1.21 0 0 1 0 .19v.33a2.7 2.7 0 0 0 .55 1.76 1 1 0 0 0 1.25.07.94.94 0 0 0 .25-1.23s0-.09-.08-.14 0-.06 0 0c0-.11-.06-.21-.08-.32 0 .09 0 .11 0 0a1.49 1.49 0 0 1 0-.21v-.34a6 6 0 0 0-.5-1.79 10 10 0 0 0-1.83-2.69.73.73 0 0 0-1-.06.72.72 0 0 0-.19.95zM390.45 274.93c.09.24.25.43.35.67a6.73 6.73 0 0 1 .23.8c.15.58.33 1.16.45 1.75a26.55 26.55 0 0 1 .4 3.46.93.93 0 1 0 1.86 0 13.47 13.47 0 0 0-.47-4.09 13.31 13.31 0 0 0-.63-1.94 2.52 2.52 0 0 0-1.27-1.56.75.75 0 0 0-.92.91z" fill="#57452b" className="fill-000000"></path><path d="M364 269.51q54.5-18 108.69-36.94 54.44-19 108.54-38.9 53.88-19.81 107.39-40.6 26.76-10.38 53.44-21l13.68-5.45c1.83-.73 4.49-2.22 6.48-1.46.55.2 1.6 1 1.53 1.68 0 0-1.35 1.64-.69.47.57-1 2.1-1.44 3.16-2 7.5-3.84 15-7.68 22.53-11.46a749.5 749.5 0 0 1 81.43-35.33c4.15-1.51 8.31-3 12.48-4.42 1.38-.48.79-2.69-.61-2.2a772.15 772.15 0 0 0-89.35 37.46c-8 4-15.9 8-23.82 12.06l-5.94 3c-1.13.58-2.62 1.06-2.75 2.52-.18 1.93 2.18 3.56 3.94 3 2.26-.7 2.23-3.57 1.11-5.22-2.05-3-5.84-2-8.68-.92-9.63 3.74-19.19 7.65-28.79 11.45q-57.65 22.77-115.68 44.52-58.29 21.84-116.91 42.74-58.42 20.91-117.18 40.68L363.55 268c-.93.31-.53 1.79.41 1.48z" fill="#ffedd4" className="fill-ffffff"></path></svg>