<svg viewBox="0 0 1000 1000" xmlns="http://www.w3.org/2000/svg"><path d="M594.16 385a118 118 0 0 1-.57-17.63.42.42 0 0 1 .63-.47 45.35 45.35 0 0 1 19.64 12.42c.15.16.3.41.17.58s-.42-.21-.2-.2" fill="#6b562f" className="fill-000000"></path><path d="M595 385c0-2.93-.32-5.87-.38-8.8v-6.42c0-.66-.16-1.88.14-2.29l-.71.54c-.31.06-.06 0 .13.12s.53.18.79.28c.43.15.85.31 1.26.47 1 .37 1.88.75 2.8 1.18a44.41 44.41 0 0 1 5.16 2.81 43.4 43.4 0 0 1 4.63 3.37c.77.64 1.52 1.32 2.25 2l1 .95.58.6c.2.22.23.44.24.08l.57-1-.1.07.85-.11.27.15v1.46l.06-.08a1 1 0 0 0-1-1.68h-.09a1 1 0 0 0-.76 1 1.25 1.25 0 0 0 2.44.41c.52-1.42-1.44-2.79-2.32-3.63a45.91 45.91 0 0 0-7.66-5.94 43.66 43.66 0 0 0-8.73-4.22c-1.17-.41-3.25-1.42-3.9.26a7.67 7.67 0 0 0-.17 2.53v3q0 3.23.24 6.42a43.14 43.14 0 0 0 .75 6.62.83.83 0 0 0 1.66-.15zM645.81 373.65a29.31 29.31 0 0 1 15.9-18.55 1.54 1.54 0 0 1 1-.2 1.59 1.59 0 0 1 .84 1 30.5 30.5 0 0 1 2.34 16.33l-1 .05" fill="#6b562f" className="fill-000000"></path><path d="M646.58 373.86a30.38 30.38 0 0 1 11.3-15.22c.66-.45 1.34-.87 2-1.27a21.47 21.47 0 0 0 2.14-1.09c.33 0 .41-.11.23-.26a3.58 3.58 0 0 1 .24.48c.21.45.39.92.56 1.39.34.91.63 1.83.88 2.77a30.18 30.18 0 0 1 .69 11.55l.94-1.23-.92.18c-1.35.23-.9 2.14.3 2.24l1 .1c.75.07 1.21-.66 1.29-1.29a31.91 31.91 0 0 0-.44-10.45 29.52 29.52 0 0 0-1.51-5c-.53-1.34-1.12-3.12-2.87-3.07-1.36 0-3 1.19-4.09 1.87a31.6 31.6 0 0 0-3.54 2.53 29.34 29.34 0 0 0-5.82 6.41 26.93 26.93 0 0 0-3.92 9 .8.8 0 0 0 1.55.43z" fill="#6b562f" className="fill-000000"></path><path d="M656.65 372.47c-7.41-.48-14.79 1-22.06 2.56l-29.11 6.07c-5.41 1.12-11.44 2.69-14.2 7.47-1.73 3-1.76 6.67-1.64 10.14a199.36 199.36 0 0 0 4.58 36.57c.46 2.08 1.06 4.32 2.77 5.59 1.46 1.09 3.41 1.22 5.23 1.26a152.59 152.59 0 0 0 67.13-13.75c2.93-1.35 6-2.95 7.56-5.78a15.12 15.12 0 0 0 1.42-6.31A126.1 126.1 0 0 0 677.2 389c-.64-4.22-1.55-8.54-4-12.06s-6.68-6.08-10.88-5.31" fill="#ffffff" className="fill-ffffff"></path><path d="M656.65 371.49c-9.83-.66-19.61 1.85-29.18 3.76l-14.6 2.9c-4.28.85-8.67 1.5-12.86 2.75-3.39 1-6.81 2.59-9.06 5.41-2.63 3.3-3 7.49-2.93 11.56a195.31 195.31 0 0 0 3 29.25c.42 2.39.89 4.78 1.39 7.15a19.52 19.52 0 0 0 1.8 5.73c2.3 3.95 7 3.7 11 3.72a154.6 154.6 0 0 0 27.5-2.37A152.68 152.68 0 0 0 659.6 434a116.61 116.61 0 0 0 12.19-5.17c3.59-1.83 6.58-4.42 7.5-8.49a40 40 0 0 0 .66-7q.15-3.64.09-7.31a127.37 127.37 0 0 0-1.09-14.6c-1.05-7.93-2.91-17.58-11.5-20.6a10.88 10.88 0 0 0-5.43-.42c-1.63.27-.93 2.72.68 2.48 3.58-.55 7.1 1.65 9.14 4.46 2.36 3.25 3.26 7.3 3.87 11.2a122.51 122.51 0 0 1 1.19 27 15.51 15.51 0 0 1-1.17 6.1 9.4 9.4 0 0 1-3.62 3.62 68.81 68.81 0 0 1-11 5 152.63 152.63 0 0 1-24.32 7.22 150.44 150.44 0 0 1-25.46 3.08c-2.14.07-4.27.1-6.41.08a20.38 20.38 0 0 1-5.84-.41c-1.82-.56-2.57-2.16-3-3.87-.56-2.05-.94-4.16-1.34-6.24a196.25 196.25 0 0 1-3.31-26.79c-.22-4-.77-8.4.46-12.26 1.05-3.26 3.82-5.31 6.89-6.54a66.69 66.69 0 0 1 10.71-2.81l13.56-2.95c8.85-1.93 17.8-4.42 26.85-5.18a50.68 50.68 0 0 1 6.75-.13c1.27.06 1.25-1.88 0-2z" fill="#6b562f" className="fill-000000"></path><path d="M590.59 390.86c-.74 3.23 2.49 5.25 4.83 6.72a85.85 85.85 0 0 0 10 5.38c3.27 1.52 6.62 2.86 10 4.14 3.56 1.36 7.14 2.87 10.82 3.87a15 15 0 0 0 10.65-.53c3-1.44 5.58-3.88 8.13-6a142.83 142.83 0 0 0 15.24-14.27 65.94 65.94 0 0 0 7.06-9.4c.93-1.51 2.14-3.24 2.11-5.1a3.42 3.42 0 0 0-2.45-3.32 1.29 1.29 0 0 0-.69 2.48c1.81.56-2.49 6.4-3.06 7.22a66 66 0 0 1-5.61 7 140.74 140.74 0 0 1-13.22 12.39 72.16 72.16 0 0 1-7 5.66 11.77 11.77 0 0 1-9.05 1.66 67 67 0 0 1-9.22-2.89c-3-1.06-6-2.14-9-3.32a109.3 109.3 0 0 1-10.13-4.61 74.16 74.16 0 0 1-4.75-2.69c-1.31-.82-3.37-2.12-3-3.95.21-1-1.36-1.49-1.6-.44zM588.43 404.43a23 23 0 0 1-15-15.56l-30.86 32.49a18.84 18.84 0 0 1 12.25-3.36 13 13 0 0 1 10.31 6.88 9.49 9.49 0 0 1 18.18-.75 16.32 16.32 0 0 1 1.75-5.36 5.48 5.48 0 0 1 4.59-2.83" fill="#6b562f" className="fill-000000"></path><path d="M588.66 403.6c-6.6-2.38-12.36-8.13-14-15.07a1.28 1.28 0 0 0-2.13-.56c-2.69 2.58-5.19 5.38-7.77 8.07l-7.76 8.09q-7.74 8.1-15.43 16.24c-1.06 1.12.32 3.1 1.7 2.21 3.53-2.29 7.83-3.79 12.07-3.06a11.67 11.67 0 0 1 8.55 6.11 1.43 1.43 0 0 0 2.58-.34 8.09 8.09 0 0 1 15.46-.75c.44 1.19 2.43 1.49 2.73 0 .55-2.72 1.44-7.13 5-7.24a1.32 1.32 0 0 0 0-2.64c-5 0-6.87 5-7.7 9.13h2.73a10.91 10.91 0 0 0-20.91.75l2.57-.33a14.24 14.24 0 0 0-10.23-7.4 20 20 0 0 0-14.23 3.34l1.7 2.21q7.71-8.13 15.42-16.25c2.51-2.65 5-5.32 7.51-8s5.34-5.47 7.83-8.35l-2.13-.57c2.53 7.62 8.14 13.79 16 16 1.07.3 1.47-1.28.45-1.65zM678.67 388.69a28 28 0 0 0 13.71-22.21A89.84 89.84 0 0 0 731.65 377a32.54 32.54 0 0 0-24.48 19.64 9.44 9.44 0 0 0-16 3.74 6.54 6.54 0 0 0-12.32-.3" fill="#6b562f" className="fill-000000"></path><path d="M679.11 389.43a28.65 28.65 0 0 0 14.57-22.95l-2 1.13a92.25 92.25 0 0 0 39.93 10.69l-.36-2.64a34 34 0 0 0-25.45 20.57l2.31-.61a10.84 10.84 0 0 0-18.35 4.38h2.72a8.23 8.23 0 0 0-7.24-5.54 8 8 0 0 0-7.76 5.25c-.52 1.44 1.83 2.45 2.5 1.05a5.6 5.6 0 0 1 5.08-3.46 5.3 5.3 0 0 1 4.7 3.45 1.42 1.42 0 0 0 2.72 0 8.15 8.15 0 0 1 13.72-3.14 1.4 1.4 0 0 0 2.31-.61A31.29 31.29 0 0 1 732 378.26c1.54-.27 1.1-2.6-.36-2.65A89.07 89.07 0 0 1 693 365.36a1.31 1.31 0 0 0-1.95 1.12 27.66 27.66 0 0 1-12.85 21.46.87.87 0 0 0 .88 1.49z" fill="#6b562f" className="fill-000000"></path><g fill="#f5be75" className="fill-18c4ff"><path d="M566 417.6a69.88 69.88 0 0 1 6.52-22.34c.49-1-1-1.87-1.49-.87a70.15 70.15 0 0 0-6.57 23.21c-.11 1 1.42 1 1.54 0zM578.42 405.79a69.84 69.84 0 0 0 2.58 12.15.81.81 0 0 0 1.57-.43 95.76 95.76 0 0 1-2.65-11.92c-.13-.84-1.6-.65-1.49.2zM578.33 402.29l.28-.12a.86.86 0 0 0 .39-.23l.14-.17a1 1 0 0 0 .11-.44.63.63 0 0 0-.07-.34.75.75 0 0 0-.18-.28.57.57 0 0 0-.28-.18.68.68 0 0 0-.34-.08.83.83 0 0 0-.44.12l-.27.16a.64.64 0 0 0-.24.22.73.73 0 0 0-.15.29v.22a.72.72 0 0 0 .07.33.4.4 0 0 0 .11.19.64.64 0 0 0 .24.22l.21.09a.86.86 0 0 0 .45 0zM595.1 370.73c.64 1.49 1.2 3 1.69 4.56.24.76.47 1.53.67 2.3s.37 1.62.62 2.41a.82.82 0 0 0 1.58-.43 29.46 29.46 0 0 0-1.37-4.88q-.82-2.4-1.86-4.74a.76.76 0 0 0-1-.27.79.79 0 0 0-.28 1.05zM662.12 355.68a60.07 60.07 0 0 0-2.64 13.42c-.11 1.18 1.75 1.18 1.84 0a78.59 78.59 0 0 1 2.29-13 .77.77 0 0 0-1.49-.41zM692.09 395.92c.65-6 1-11.93 1.13-17.93a.88.88 0 0 0-1.75 0c-.13 6-.45 12-1 17.93-.1 1.07 1.55 1.05 1.66 0zM692.63 374.05a.79.79 0 0 0 0-1.57.79.79 0 0 0 0 1.57zM694.44 369.64a90 90 0 0 1 6.78 11.53 129.54 129.54 0 0 1 5.11 12.59.8.8 0 0 0 1.55-.43c-2.37-8.73-6.93-17.1-12.13-24.45-.56-.79-1.87-.05-1.31.76zM601.28 424.63c2.09-.28 4.18-.54 6.27-.85a20.39 20.39 0 0 0 5.77-1.35c1.11-.53.14-2.18-1-1.65a20.51 20.51 0 0 1-5.55 1.18c-2 .33-4 .69-6 1a.86.86 0 0 0-.6 1.05.88.88 0 0 0 1 .59zM602.71 429.22a69 69 0 0 0 11.23-1.83c1.19-.27.69-2.14-.51-1.84-3.61.9-7.27 1.49-10.93 2.14-.86.15-.67 1.59.21 1.53zM606.32 433.23h3.06a.87.87 0 0 0 .87-.87.89.89 0 0 0-.87-.88l-3.06.11a.8.8 0 0 0-.79.79.81.81 0 0 0 .79.8z"></path></g><path d="M505.37 127.47a118 118 0 0 1-.57-17.63c0-.18 0-.39.18-.48a.59.59 0 0 1 .45 0 45.41 45.41 0 0 1 19.64 12.42c.15.16.3.41.17.58s-.42-.21-.2-.2" fill="#6b562f" className="fill-000000"></path><path d="M506.2 127.47c0-2.93-.32-5.87-.38-8.8v-4.42c0-.67 0-1.34.06-2 0-.51-.17-1.87.13-2.28l-.7.54c-.32.06-.07 0 .13.12s.53.18.79.28c.43.15.84.3 1.26.47.95.37 1.88.75 2.8 1.18a44.41 44.41 0 0 1 5.16 2.81 43.4 43.4 0 0 1 4.63 3.37c.77.64 1.52 1.32 2.25 2 .32.31.64.63.95 1l.59.6c.2.21.23.44.24.08l.57-1-.11.07.86-.11.27.14V123l.06-.07a1 1 0 0 0-1-1.68h-.08a1 1 0 0 0-.76 1 1.25 1.25 0 0 0 2.44.42c.52-1.42-1.44-2.79-2.32-3.63a46.5 46.5 0 0 0-7.66-6 44.17 44.17 0 0 0-8.73-4.21c-1.17-.41-3.25-1.43-3.9.26a7.93 7.93 0 0 0-.18 2.53v3c0 2.14.1 4.29.24 6.42a43.14 43.14 0 0 0 .75 6.62.83.83 0 0 0 1.63-.22zM557 116.09a29.29 29.29 0 0 1 15.89-18.55 1.57 1.57 0 0 1 1.05-.2 1.6 1.6 0 0 1 .84 1 30.55 30.55 0 0 1 2.34 16.34h-1" fill="#6b562f" className="fill-000000"></path><path d="M557.79 116.3a30.38 30.38 0 0 1 11.3-15.22c.66-.45 1.33-.88 2-1.27a21.47 21.47 0 0 0 2.14-1.09c.33 0 .41-.11.22-.26a2.73 2.73 0 0 1 .25.48c.21.45.39.92.56 1.39a26.19 26.19 0 0 1 .87 2.77 30 30 0 0 1 .7 11.55l.94-1.24-.93.18c-1.34.24-.89 2.15.31 2.25l1 .1c.75.07 1.21-.66 1.28-1.29a31.9 31.9 0 0 0-.43-10.45 29.52 29.52 0 0 0-1.51-5c-.53-1.34-1.12-3.12-2.87-3.07-1.37 0-3 1.18-4.09 1.87a31.6 31.6 0 0 0-3.54 2.53 29.57 29.57 0 0 0-5.83 6.4 27.16 27.16 0 0 0-3.91 9 .8.8 0 0 0 1.55.43z" fill="#6b562f" className="fill-000000"></path><path d="M567.86 114.91c-7.41-.48-14.79 1-22.06 2.56l-29.12 6.07c-5.4 1.12-11.43 2.69-14.19 7.47-1.73 3-1.76 6.67-1.65 10.14a200.24 200.24 0 0 0 4.59 36.57c.46 2.08 1.06 4.32 2.77 5.59 1.46 1.09 3.41 1.21 5.23 1.26a152.59 152.59 0 0 0 67.13-13.75c2.93-1.35 6-2.95 7.56-5.79a15 15 0 0 0 1.41-6.3 125.47 125.47 0 0 0-1.12-27.25c-.64-4.22-1.55-8.54-4-12.06s-6.68-6.08-10.88-5.31" fill="#6b562f" className="fill-000000"></path><path d="M567.86 113.93c-9.83-.66-19.61 1.85-29.19 3.75l-14.59 2.91c-4.28.85-8.67 1.5-12.86 2.74-3.39 1-6.81 2.6-9.06 5.42-2.63 3.3-3 7.49-2.94 11.56a195.32 195.32 0 0 0 3 29.25q.63 3.58 1.39 7.15a19.52 19.52 0 0 0 1.8 5.73c2.3 3.95 7 3.7 11 3.72a154.6 154.6 0 0 0 27.5-2.37 152.92 152.92 0 0 0 26.9-7.33 116.68 116.68 0 0 0 12.19-5.18c3.59-1.82 6.58-4.41 7.49-8.49a39.79 39.79 0 0 0 .67-7c.1-2.43.13-4.88.09-7.31a127.2 127.2 0 0 0-1.09-14.6c-1-7.93-2.91-17.58-11.5-20.6a10.67 10.67 0 0 0-5.43-.42c-1.63.27-.93 2.72.68 2.47 3.58-.54 7.1 1.66 9.14 4.46 2.36 3.26 3.25 7.31 3.87 11.21a122.48 122.48 0 0 1 1.19 27 15.51 15.51 0 0 1-1.17 6.1 9.4 9.4 0 0 1-3.62 3.62 68.81 68.81 0 0 1-11 5 152.94 152.94 0 0 1-24.32 7.22 150.56 150.56 0 0 1-25.42 3.06c-2.13.07-4.27.1-6.4.08a20.47 20.47 0 0 1-5.85-.41c-1.81-.56-2.56-2.16-3-3.88-.56-2-.94-4.15-1.34-6.23a196.44 196.44 0 0 1-3.31-26.79c-.22-4-.77-8.4.46-12.26 1-3.26 3.82-5.31 6.88-6.54a67.08 67.08 0 0 1 10.72-2.81l13.55-3c8.86-1.93 17.8-4.42 26.85-5.19a50.86 50.86 0 0 1 6.76-.12c1.27.06 1.25-1.88 0-2z" fill="#6b562f" className="fill-000000"></path><path d="M567.86 113.93c-9.83-.66-19.61 1.85-29.19 3.75l-14.59 2.91c-4.28.85-8.67 1.5-12.86 2.74-3.39 1-6.81 2.6-9.06 5.42-2.63 3.3-3 7.49-2.94 11.56a195.32 195.32 0 0 0 3 29.25q.63 3.58 1.39 7.15a19.52 19.52 0 0 0 1.8 5.73c2.3 3.95 7 3.7 11 3.72a154.6 154.6 0 0 0 27.5-2.37 152.92 152.92 0 0 0 26.9-7.33 116.68 116.68 0 0 0 12.19-5.18c3.59-1.82 6.58-4.41 7.49-8.49a39.79 39.79 0 0 0 .67-7c.1-2.43.13-4.88.09-7.31a127.2 127.2 0 0 0-1.09-14.6c-1-7.93-2.91-17.58-11.5-20.6a10.67 10.67 0 0 0-5.43-.42c-1.63.27-.93 2.72.68 2.47 3.58-.54 7.1 1.66 9.14 4.46 2.36 3.26 3.25 7.31 3.87 11.21a122.48 122.48 0 0 1 1.19 27 15.51 15.51 0 0 1-1.17 6.1 9.4 9.4 0 0 1-3.62 3.62 68.81 68.81 0 0 1-11 5 152.94 152.94 0 0 1-24.32 7.22 150.56 150.56 0 0 1-25.42 3.06c-2.13.07-4.27.1-6.4.08a20.47 20.47 0 0 1-5.85-.41c-1.81-.56-2.56-2.16-3-3.88-.56-2-.94-4.15-1.34-6.23a196.44 196.44 0 0 1-3.31-26.79c-.22-4-.77-8.4.46-12.26 1-3.26 3.82-5.31 6.88-6.54a67.08 67.08 0 0 1 10.72-2.81l13.55-3c8.86-1.93 17.8-4.42 26.85-5.19a50.86 50.86 0 0 1 6.76-.12c1.27.06 1.25-1.88 0-2z" fill="#6b562f" className="fill-000000"></path><path d="M501.8 133.3c-.74 3.23 2.49 5.25 4.82 6.72a86.8 86.8 0 0 0 10 5.38c3.27 1.51 6.61 2.86 10 4.14 3.56 1.36 7.14 2.87 10.82 3.87a15 15 0 0 0 10.65-.53c3-1.44 5.58-3.88 8.13-6a143.86 143.86 0 0 0 15.24-14.27 66.7 66.7 0 0 0 7.06-9.4c.93-1.51 2.14-3.25 2.11-5.1a3.41 3.41 0 0 0-2.46-3.32 1.29 1.29 0 0 0-.68 2.48c1.81.55-2.49 6.39-3.06 7.22a66 66 0 0 1-5.61 7 139.63 139.63 0 0 1-13.23 12.39 70.87 70.87 0 0 1-7 5.66 11.78 11.78 0 0 1-9 1.66 66.12 66.12 0 0 1-9.22-2.89c-3-1.06-6-2.15-9-3.32a109.3 109.3 0 0 1-10.12-4.55c-1.62-.84-3.21-1.73-4.75-2.69-1.31-.82-3.37-2.13-3-3.95.21-1-1.36-1.49-1.6-.44z" fill="#f5be75" className="fill-18c4ff"></path><path d="M499.64 146.86a22.93 22.93 0 0 1-15-15.55l-30.85 32.49a18.91 18.91 0 0 1 12.21-3.33 13 13 0 0 1 10.31 6.89 9.49 9.49 0 0 1 18.18-.75 16.09 16.09 0 0 1 1.75-5.36 5.45 5.45 0 0 1 4.59-2.83" fill="#6b562f" className="fill-000000"></path><path d="M499.87 146c-6.6-2.38-12.36-8.13-14-15.07a1.29 1.29 0 0 0-2.13-.56c-2.69 2.58-5.19 5.38-7.77 8.07l-7.75 8.09q-7.74 8.1-15.43 16.24c-1.06 1.12.32 3.1 1.7 2.21 3.53-2.29 7.83-3.79 12.07-3.06a11.62 11.62 0 0 1 8.55 6.11 1.42 1.42 0 0 0 2.57-.34 8.09 8.09 0 0 1 15.47-.75c.44 1.19 2.42 1.48 2.72 0 .55-2.72 1.44-7.13 5-7.25a1.32 1.32 0 0 0 0-2.63c-5 0-6.87 5-7.7 9.13h2.72A10.9 10.9 0 0 0 475 167l2.57-.33a14.24 14.24 0 0 0-10.23-7.4 20 20 0 0 0-14.24 3.34l1.7 2.21q7.73-8.13 15.43-16.25l7.51-8c2.61-2.77 5.34-5.48 7.83-8.35l-2.13-.57c2.53 7.62 8.14 13.79 16 16 1.06.3 1.47-1.28.45-1.65zM589.88 131.13a28 28 0 0 0 13.71-22.21 89.84 89.84 0 0 0 39.27 10.48 32.52 32.52 0 0 0-24.48 19.6 9.44 9.44 0 0 0-16 3.74 6.54 6.54 0 0 0-12.32-.3" fill="#6b562f" className="fill-000000"></path><path d="M590.31 131.87a28.62 28.62 0 0 0 14.57-23l-2 1.12a92.12 92.12 0 0 0 39.93 10.7l-.36-2.64A34 34 0 0 0 617 138.62l2.31-.61A10.84 10.84 0 0 0 601 142.4h2.72a8.23 8.23 0 0 0-7.24-5.53 8 8 0 0 0-7.76 5.25c-.52 1.44 1.83 2.45 2.5 1a5.6 5.6 0 0 1 5.08-3.46 5.3 5.3 0 0 1 4.7 3.44 1.42 1.42 0 0 0 2.72 0 8.14 8.14 0 0 1 13.68-3.1 1.41 1.41 0 0 0 2.32-.62 31.32 31.32 0 0 1 23.5-18.71c1.54-.26 1.1-2.59-.36-2.64a89.07 89.07 0 0 1-38.62-10.25 1.31 1.31 0 0 0-2 1.12 27.66 27.66 0 0 1-12.85 21.46.86.86 0 0 0 .87 1.49z" fill="#6b562f" className="fill-000000"></path><g fill="#f5be75" className="fill-18c4ff"><path d="M477.19 160a69.55 69.55 0 0 1 6.52-22.34c.48-1-1-1.87-1.49-.87a70.4 70.4 0 0 0-6.58 23.21c-.1 1 1.43 1 1.55 0zM489.63 148.23a70 70 0 0 0 2.57 12.15.82.82 0 0 0 1.57-.44 95.21 95.21 0 0 1-2.65-11.94c-.13-.84-1.6-.65-1.49.2zM489.54 144.72l.28-.11a.86.86 0 0 0 .39-.23l.13-.17a.89.89 0 0 0 .12-.45.62.62 0 0 0-.07-.33.79.79 0 0 0-.18-.29.84.84 0 0 0-.28-.18.67.67 0 0 0-.34-.07.83.83 0 0 0-.44.12l-.27.16a.56.56 0 0 0-.24.22.62.62 0 0 0-.15.29v.22a.62.62 0 0 0 .07.33.45.45 0 0 0 .11.19.64.64 0 0 0 .24.22l.2.08a.72.72 0 0 0 .46 0zM506.31 113.17c.63 1.49 1.19 3 1.69 4.56.24.76.46 1.53.67 2.3s.37 1.62.62 2.41a.81.81 0 0 0 1.57-.43 28.49 28.49 0 0 0-1.36-4.88 58.19 58.19 0 0 0-1.86-4.74.76.76 0 0 0-1.05-.27.79.79 0 0 0-.28 1zM573.33 98.12a59.52 59.52 0 0 0-2.64 13.42c-.11 1.17 1.75 1.18 1.84 0a77.54 77.54 0 0 1 2.28-13 .77.77 0 0 0-1.48-.41zM603.3 138.36c.65-6 1.05-11.94 1.13-17.93a.88.88 0 0 0-1.75 0c-.13 6-.46 12-1 17.93-.1 1.07 1.55 1 1.66 0zM603.84 116.49a.79.79 0 0 0 0-1.57.79.79 0 0 0 0 1.57zM605.65 112.08a90 90 0 0 1 6.78 11.53 132.11 132.11 0 0 1 5.11 12.59.8.8 0 0 0 1.55-.43c-2.37-8.73-6.93-17.1-12.13-24.46-.56-.78-1.87 0-1.31.77zM512.49 167.07c2.09-.28 4.18-.54 6.26-.86a20 20 0 0 0 5.78-1.34c1.11-.53.14-2.18-1-1.65a20.43 20.43 0 0 1-5.53 1.18c-2 .33-4 .69-6 1a.86.86 0 0 0-.6 1 .88.88 0 0 0 1.05.59zM513.92 171.66a68.71 68.71 0 0 0 11.22-1.83c1.2-.27.69-2.14-.5-1.84-3.61.89-7.27 1.49-10.93 2.13a.79.79 0 0 0 .21 1.54zM517.53 175.67l3.06.05a.88.88 0 0 0 0-1.75l-3.06.11a.79.79 0 0 0-.79.79.8.8 0 0 0 .79.8z"></path><path d="M619.87 388.2c-7.08-67.89-10.21-136.17-20.43-203.8a13 13 0 0 0-1.74-5.59c-2-2.85-5.76-3.66-9.17-4.23-44.3-7.47-82.85-10.91-119.92-36.29-4.73-3.24-9.44-6.82-15-8.17-12.62-3.06-24.61 5.93-35.05 13.65-22.47 16.62-72.43 29.4-98.88 38.46-10.29 3.53-14.36 9.72-14.79 20.51-2.93 74.38 5.69 146.54 17.35 220.09 3.08 18.31 7.1 37 17.51 52.41C352 493.3 371.58 504.75 390.82 515q38.48 20.52 78.45 38c3.74 1.64 7.6 3.28 11.69 3.35 4.85.08 9.44-2.07 13.8-4.21 23-11.3 44.9-24.1 66.65-37.46 20.86-12.81 38.77-23.34 49.76-46.76 11.5-24.48 11.51-52.78 8.7-79.72z"></path></g><path d="M316.21 365.6a38 38 0 0 0 11.36 14c1.63 1.23 3.58 3.2 2.54 4.95a9.06 9.06 0 0 1-1.19 1.29c-1.68 1.91-.85 4.85 0 7.24 1.79 5.11 3.12 11 .38 15.69s-8.43 6.34-13.72 6.88c-14.52 1.47-30.43-4.46-37.71-17.12-3.4-5.93-4.73-12.88-4.7-19.71 0-5.09.81-10.31 3.38-14.7 4.65-7.92 14.58-11.72 23.73-10.87 6.26.59 13.83 6.43 15.95 12.35" fill="#ffffff" className="fill-ffffff"></path><path d="M278.55 398.12a40.44 40.44 0 0 1-4.13-17.12c-.23-5.76.38-11.9 3.55-16.87a21.23 21.23 0 0 1 11.24-8.38c4.37-1.45 9.61-2.08 14-.57a21.34 21.34 0 0 1 12.16 10.89c.44 1 2 .28 1.69-.71-1.53-5.14-6.18-9.32-10.89-11.59s-10.41-2.28-15.58-1a24.79 24.79 0 0 0-13.36 8.14c-3.88 4.81-5.22 11-5.35 17a38.34 38.34 0 0 0 5.24 21 .8.8 0 0 0 1.39-.81z" fill="#6b562f" className="fill-000000"></path><path d="M315.51 366a35.25 35.25 0 0 0 7.15 10.92c1.53 1.55 3.29 2.81 4.91 4.26.59.53 1.73 1.51 1.59 2.42s-1.4 1.58-1.8 2.33c-1.94 3.59.75 8.09 1.6 11.62 1 4.11 1.14 8.83-1.9 12.16s-7.56 4.22-11.74 5c-1 .2-.78 1.83.24 1.81a19.91 19.91 0 0 0 11.6-3.65 13 13 0 0 0 4.89-11.42 29.41 29.41 0 0 0-1.44-7.19c-.61-2-1.74-4.19-1.38-6.29.2-1.18 1.1-1.65 1.74-2.56a3.38 3.38 0 0 0 .56-2.82c-.54-2.1-2.48-3.4-4.06-4.68a42.23 42.23 0 0 1-10.57-12.71c-.5-.94-1.79-.12-1.39.81z" fill="#6b562f" className="fill-000000"></path><path d="m317.31 376.17-.27.24a2.31 2.31 0 0 0-.34.42 1.92 1.92 0 0 0-.18.31 2.35 2.35 0 0 0-.17.51 2.47 2.47 0 0 0-.05.54 1.81 1.81 0 0 0 .23.79.47.47 0 0 0 .07.12 3.92 3.92 0 0 0 .25.32 1.6 1.6 0 0 0 .45.32l.29.12a.88.88 0 0 0 .48 0 .53.53 0 0 0 .3-.09.88.88 0 0 0 .39-.24 2.69 2.69 0 0 0 .26-.33l.07-.11a2.24 2.24 0 0 0 .23-.84 1.77 1.77 0 0 0-.3-1.09 1.32 1.32 0 0 0-.45-.46l-.3-.12a1.27 1.27 0 0 0-.67 0 .93.93 0 0 0-.43.22 1 1 0 0 0-.33.36 1 1 0 0 0-.15.47 1 1 0 0 0 0 .5 1.27 1.27 0 0 0 .32.55.18.18 0 0 1 0 .07l-.19-.26a.61.61 0 0 1 .07.14l-.12-.3a.75.75 0 0 1 0 .16v-.33.18-.32a.61.61 0 0 1-.05.18l.13-.29-.08.13.18-.24 1.17-.31h-.07l.28.12-.15-.09.25.18a.49.49 0 0 1-.13-.12l.19.24a2.48 2.48 0 0 1-.18-.31l.12.27a1.38 1.38 0 0 1-.08-.27v.29a1.37 1.37 0 0 1 0-.35v.28a6.52 6.52 0 0 1 .2-.79.84.84 0 0 0-.37-.93 1.19 1.19 0 0 0-.41-.11.84.84 0 0 0-.58.24zM313 375.62h.13-.37a1 1 0 0 0 .63-.07l.24-.15.45-.25.52-.25.2-.09c.1 0 .09 0 0 0l.13-.05a13.7 13.7 0 0 1 2.06-.57l-.34.05a2.17 2.17 0 0 1 .36 0h-.33l-.23-.09a1.17 1.17 0 0 0 1.21 0 1.27 1.27 0 0 0 .59-1 1.4 1.4 0 0 0-1-1.37 1.82 1.82 0 0 0-1.35.2 8.21 8.21 0 0 0-1.26.7 6.33 6.33 0 0 0-.72.55s.15-.12 0 0l-.3.23-.26.2-.53.47-.26.25a.89.89 0 0 0-.3.66l.09-.35-.06.12a.65.65 0 0 0 .72.94zM297.22 385.44l.1-.05-.19.08h.17-.21a.71.71 0 0 1 .25 0h-.21a1.29 1.29 0 0 1 .28.08l-.19-.08a1.35 1.35 0 0 1 .26.15l-.17-.13a1.76 1.76 0 0 1 .3.31l-.13-.17a3.84 3.84 0 0 1 .46.81l-.08-.2a3 3 0 0 1 .19.65v-.22a1.69 1.69 0 0 1 0 .45v-.23.08l1.07-.6.21.09-.09-.06.17.14-.09-.09.13.17-.06-.11.09.21a.74.74 0 0 1 0-.14v.24a.43.43 0 0 1 0-.16v.23a.79.79 0 0 1 0-.13l-.09.22a.47.47 0 0 1 .06-.09l-.15.18a.91.91 0 0 0-.77-1.54.65.65 0 0 0-.33.11.87.87 0 0 0-.33.33 1.33 1.33 0 0 0-.15 1.18 1.43 1.43 0 0 0 .94.94.87.87 0 0 0 .67-.08.94.94 0 0 0 .4-.52 2.84 2.84 0 0 0 0-.92 2.44 2.44 0 0 0-.14-.53 4.5 4.5 0 0 0-.58-1.08 2.42 2.42 0 0 0-1.15-.92 1.69 1.69 0 0 0-1.42.13.79.79 0 0 0 .8 1.37zM321.56 396.53c.08-.19-.08.17 0 0l.06-.14.16-.29.18-.27c.08-.11 0-.05 0 0a1.71 1.71 0 0 1 .11-.14 5.1 5.1 0 0 1 .46-.47l.12-.1c.17-.14-.09.07 0 0l.27-.18a6.38 6.38 0 0 1 .57-.32l.14-.07c.16-.07 0 0-.06 0 .11 0 .22-.09.33-.12l.61-.17.31-.08h.18a1.08 1.08 0 0 0 .7-.29 1 1 0 0 0 .29-.7 1 1 0 0 0-1-1 3.63 3.63 0 0 0-1.67.18 5.67 5.67 0 0 0-1.63.95 5.22 5.22 0 0 0-1.73 2.74.85.85 0 1 0 1.64.45z" fill="#6b562f" className="fill-000000"></path><path d="m305 372.36 4.75-2.49a3.26 3.26 0 0 0 1.43-1.15c1-1.77-1.7-3.93-.92-5.82l4.28 4.51 6.17-2.94a1.6 1.6 0 0 0 .84-.69 1.51 1.51 0 0 0-.17-1.16 22.13 22.13 0 0 0-13.85-11.83 25.6 25.6 0 0 0-18.27 1.73c-1.51.74-2.94 1.61-4.45 2.34-2.7 1.3-5.61 2.14-8.29 3.46a25.38 25.38 0 0 0-10.78 10.15c-4 7-4.41 15.44-7 23.06a37.13 37.13 0 0 1-11 16.39c-2.67 2.24-5.69 4.07-8.1 6.58s-4.21 6-3.6 9.39c.69 3.91 4.38 7.29 3.55 11.18-.55 2.58-2.6 4.62-3.3 7.2a15.92 15.92 0 0 0 .24 8.71 15.43 15.43 0 0 0 5.2 7.76c11.68 8.91 28.16 2.12 37.37-6.91 5.74-5.62 10.85-12.06 13.91-19.49 4.67-11.33 4.28-24 3.48-36.28a13.77 13.77 0 0 0-.39-2.86c-.54-1.95-1.9-3.56-2.84-5.36s-1.38-4.16-.14-5.77 3.75-1.77 5.58-.85a11.32 11.32 0 0 1 4.16 4.38l1.4-12.91" fill="#6b562f" className="fill-000000"></path><path d="M305.44 373.08c1.47-.69 2.95-1.37 4.4-2.11a4.3 4.3 0 0 0 2.48-2.23 3.86 3.86 0 0 0-.22-2.61c-.34-.9-1.1-1.94-.78-2.94l-1.82.48 4.27 4.51a1.14 1.14 0 0 0 1.33.18c1.32-.63 2.64-1.28 4-1.89 1.07-.5 2.91-.94 3.48-2.1.93-1.88-1.37-4.79-2.43-6.21a23.65 23.65 0 0 0-11.21-8.16 26.14 26.14 0 0 0-15.61-.29 37.09 37.09 0 0 0-7.5 3.3c-2.57 1.38-5.31 2.3-8 3.43a27.44 27.44 0 0 0-11.64 9.12c-3.14 4.28-4.65 9.42-5.86 14.52s-2.25 10.51-4.69 15.32a35.1 35.1 0 0 1-9.77 12c-4.24 3.29-9 6.12-11 11.41a10.29 10.29 0 0 0 0 7.29c.81 2.18 2.22 4.12 2.86 6.35.71 2.47-.7 4.38-1.84 6.45a14.8 14.8 0 0 0-1.83 7.77 17.81 17.81 0 0 0 6.76 13.54c7.8 5.89 18 5.16 26.56 1.46 9.13-3.95 16.42-11.32 21.95-19.46a47.49 47.49 0 0 0 6.8-14.73 69.31 69.31 0 0 0 2-16.73c0-2.79-.07-5.58-.22-8.36s-.15-5.54-.54-8.25-2-4.54-3.18-6.86-1.1-5.47 2.1-5.42c2.57 0 4.24 2.41 5.48 4.37a1.19 1.19 0 0 0 2.19-.6l1.4-12.91c.16-1.5-2.2-1.49-2.36 0l-1.39 12.91 2.19-.59c-2.15-3.39-6.2-7.39-10.5-4.73a5.19 5.19 0 0 0-2.06 5.48c.44 2.49 2.14 4.32 3.2 6.52s1 5.29 1.09 7.82c.14 2.71.18 5.43.16 8.14a71.88 71.88 0 0 1-1.69 16.06c-2.52 10.39-8.56 19-16.13 26.33-6.09 5.93-14.59 10.52-23.25 10.59a18.91 18.91 0 0 1-12.23-4.06 14.57 14.57 0 0 1-4.76-13.62c.49-2.43 2.1-4.31 3-6.57a8.41 8.41 0 0 0 0-6.46c-.81-2.06-2.13-3.92-2.78-6a8 8 0 0 1 1.17-6.62c2.72-4.4 7.8-6.82 11.42-10.38a38.66 38.66 0 0 0 8.28-12.25c4-9.18 3.6-20.21 9.62-28.49a26.07 26.07 0 0 1 12.02-8.8 62.49 62.49 0 0 0 7.29-3.25 30.21 30.21 0 0 1 7.36-3c9.56-2.32 20.19 1.52 24.88 10.45a3.25 3.25 0 0 1 .34.67c.14.63.24.44-.3.73s-1.31.66-2 1l-4 1.9 1.33.17-4.26-4.54a1.11 1.11 0 0 0-1.82.48c-.59 1.84.66 3.12 1.06 4.8.29 1.17-1 1.58-1.89 2-1.28.7-2.54 1.45-3.8 2.18-.95.55-.12 1.91.85 1.45zM312.74 436.32q.6-5.38 1.69-10.69c.35-1.7.72-3.41 1.12-5.1a38.89 38.89 0 0 0 1.13-5.2 1.06 1.06 0 0 0-2-.53 26.07 26.07 0 0 0-1.45 5.31c-.37 1.77-.69 3.56-1 5.35-.55 3.6-.95 7.23-1.2 10.86-.08 1.06 1.51 1 1.63 0z" fill="#6b562f" className="fill-000000"></path><path d="M307.08 444.13c6.83-10.72 20.41-14.14 32.17-16.11 16.26-2.72 32.68-4 49.1-5.24 7.25-.56 14.71-1.55 21.13-5.19 5.89-3.33 10.27-8.65 13.85-14.28 4.09-6.42 7.46-13.33 11.05-20q3-5.62 6-11.25a41.4 41.4 0 0 1 5.69-8.74 17 17 0 0 1 18.7-4.25 18.71 18.71 0 0 1 7.65 5.8 23.32 23.32 0 0 1 4.11 9.59 34.21 34.21 0 0 0 4 10.23c1.82 3.08 4 6 5.45 9.26 3.25 7.16 2.38 15.06-1.17 21.9-1.76 3.39-3.87 6.59-5.65 10a115.65 115.65 0 0 0-4.82 10.86c-2.67 6.57-5.44 13.35-10.41 18.56a22.1 22.1 0 0 1-8.18 5.58 39.18 39.18 0 0 1-11.06 1.9 85 85 0 0 0-11.38 1.14 45.91 45.91 0 0 0-9.59 3.24c-6 2.67-11.73 6.22-18 8.23a24.86 24.86 0 0 1-9.33 1.26c-3.74-.27-7.21-1.87-11-1.31-6.61 1-11.27 6.62-17.73 8-4 .85-8.08.15-12-.46a71.1 71.1 0 0 0-12.27-1c-4.14.07-8.26.46-12.37.86-1.22.12-1.26 2 0 1.94 4.28-.29 8.56-.58 12.85-.51a84.34 84.34 0 0 1 13 1.5c4 .67 8.06 1.19 12.05.3 3.38-.76 6.37-2.6 9.33-4.31 2.73-1.57 5.65-3.22 8.9-3.23a30.35 30.35 0 0 1 6.1 1.07 24.55 24.55 0 0 0 5.06.52c6.82-.06 13.15-3 19.14-6 6.31-3.12 12.57-6.42 19.67-7.27 7.62-.91 15.65-.25 22.66-3.94 13.9-7.33 16.38-24.67 23.46-37.18a110.9 110.9 0 0 0 5.69-10.43 28.07 28.07 0 0 0 2.43-11.23 27.24 27.24 0 0 0-2.42-11.17c-1.53-3.4-3.78-6.41-5.71-9.58a27.91 27.91 0 0 1-2.51-5 59.67 59.67 0 0 1-1.59-5.9 23.88 23.88 0 0 0-4.61-9.41 20.45 20.45 0 0 0-17.8-7.54 19.28 19.28 0 0 0-9.42 3.49 26.74 26.74 0 0 0-6.84 8c-2.1 3.51-3.94 7.21-5.87 10.82l-6.16 11.55c-3.41 6.38-6.68 13-11.36 18.6a30 30 0 0 1-18.25 10.92c-7.8 1.67-15.94 1.67-23.86 2.34q-13 1.11-26 2.91c-12.92 1.83-27.32 3.59-37.52 12.57a27.86 27.86 0 0 0-5.62 6.84.79.79 0 0 0 1.37.8z" fill="#6b562f" className="fill-000000"></path><path d="M456.69 356.67c3.64-6.47 7.44-13.07 9.13-20.37 1.63-7-.11-15.36 4.79-21.28a1.2 1.2 0 0 0-1.7-1.7c-5.82 5.16-4.18 14.13-5.35 21-1.31 7.66-4.8 14.7-8.32 21.54-.49 1 .92 1.8 1.45.85zM474 318.42a48.05 48.05 0 0 1 8.56-5.18c.8-.4 1.6-.79 2.41-1.16.38-.18.77-.37 1.16-.54h.07l.42-.18c.1-.05.28-.07-.06 0h-.18l-.57-.15-.41-.41-.12-.87c0-.12.37-.49.14-.29s-.19.18-.29.27c-.9.81.28 2.33 1.31 1.68.59-.37 1.24-.85 1-1.66a1.26 1.26 0 0 0-1.7-.76 15.12 15.12 0 0 0-3 1.45 57 57 0 0 0-10 6.61c-.82.71.36 1.82 1.18 1.17zM484.2 320.74a1.81 1.81 0 0 0 .88.23h1.87l2.56.06a1 1 0 0 0 0-2l-2.56.06h-1.25a3.07 3.07 0 0 0-1.5.25.78.78 0 0 0 0 1.33zM487.09 326.83l.3-.06h-.25a2.49 2.49 0 0 1 .61 0h-.26a2.48 2.48 0 0 1 .66.18l-.24-.1a2.77 2.77 0 0 1 .55.33l-.21-.17a3.9 3.9 0 0 0 .4.31l.21.14-.2-.15a.8.8 0 0 1 .17.15 1 1 0 0 0 1.52-1.18 2.28 2.28 0 0 0-.82-.92 3.49 3.49 0 0 0-.93-.4 3.33 3.33 0 0 0-2 .07 1 1 0 0 0-.56.43.93.93 0 0 0 1 1.37zM488.14 334.24c.7 1.87-1.06 4.34-3 2.71a1.22 1.22 0 0 0-2 .53c-1.61 5.11-3.15 10.24-4.55 15.42s-2.86 10.36-3.87 15.61a1.2 1.2 0 0 0 2.32.64c1.41-5.17 2.57-10.41 4-15.58s2.87-10.33 4.43-15.46l-2 .53a4.29 4.29 0 0 0 5.48.18 3.84 3.84 0 0 0 .64-5.19c-.49-.65-1.79-.31-1.45.61zM294.33 427.86a59.56 59.56 0 0 1 9.23 1.05c1.48.28 2.95.61 4.4 1a20.78 20.78 0 0 0 4.54 1.09 1.23 1.23 0 0 0 .62-2.28 14.62 14.62 0 0 0-4.67-1.25c-1.53-.28-3.06-.52-4.6-.71a81.9 81.9 0 0 0-9.52-.58.83.83 0 0 0 0 1.66zM248.74 461.41c-6.2 16.81-19.25 29.76-31.7 42.13-3.12 3.1-6.25 6.2-9.3 9.36-3.24 3.35-6.56 6.75-9 10.78-2.28 3.87-3.54 8.4-2.34 12.84s4.42 8.58 7.24 12.26a106.22 106.22 0 0 0 23 22.23c1.57 1.12 3.07-1.47 1.51-2.58a102.53 102.53 0 0 1-20.18-19c-2.88-3.55-5.89-7.37-7.85-11.52-2.06-4.33-1.24-8.77 1.09-12.81s5.44-7.19 8.52-10.45 6-6.24 9.06-9.33a255 255 0 0 0 17.52-19.08 83.71 83.71 0 0 0 14-24.42c.36-1-1.27-1.47-1.65-.45z" fill="#6b562f" className="fill-000000"></path><path d="M226 549c7.34 0 14.46 1.82 21.43 4s13.71 4.46 20.52 6.82 13.38 4.76 19.93 7.5 12.52 5.87 18.75 8.9c5.95 2.89 12.08 5.48 18.7 6.23 5.71.64 13.55.16 16.57-5.61 1.38-2.64 1.64-5.68 1.74-8.61.13-3.6.2-7.21.25-10.81.11-7.45.12-14.9 0-22.36q-.21-12.66-.92-25.31c-.22-4.14-.43-8.28-.85-12.4-.44-4.3-1.06-8.57-1.5-12.87-.16-1.62-2.7-1.66-2.56 0 .61 7.25.77 14.53 1.22 21.79s.77 14.56 1 21.84.29 14.57.26 21.86c0 3.64-.07 7.29-.15 10.93-.07 3.32 0 6.7-.38 10-.29 2.67-1.14 5.38-3.62 6.76s-6 1.54-8.9 1.41c-6.38-.3-12.56-2.75-18.3-5.39-6.1-2.81-12.07-5.85-18.28-8.42-6.4-2.65-12.94-5-19.53-7.12q-11-3.61-22.19-6.88c-7.53-2.2-15.28-4-23.16-4a.86.86 0 0 0 0 1.71z" fill="#6b562f" className="fill-000000"></path><path d="M237.41 549.32c-12 17.16-12.89 42.93-4.81 62.26s22.33 35.34 36.32 50.94L322.3 722c2 2.19 4 4.61 4.25 7.55a13.55 13.55 0 0 1-1.31 5.79Q297.8 806 276.46 878.76c-1.19 4-2.27 8.74.13 12.2 1.64 2.39 4.53 3.53 7.28 4.46a138.55 138.55 0 0 0 43.47 7.27c1.61 0 3.39-.08 4.52-1.21 1.8-1.78.87-4.79-.22-7.07a154.15 154.15 0 0 0-9.82-17.52l52.18-84.1c7.16-11.54 14.4-23.26 18.15-36.31 8.92-31-3.12-64-18.18-92.56a431.78 431.78 0 0 0-51.52-76.44A64.41 64.41 0 0 0 312 577c-3.4-2.53-7.08-2.31-10.91-4.12-19.4-9.17-44.09-15.88-64.67-22.08" fill="#6b562f" className="fill-000000"></path><path d="M236.68 548.89c-7.53 10.69-10.72 24.08-10.49 37 .24 14 4.64 26.89 11.66 38.89 7.66 13.07 17.64 24.58 27.7 35.84q17.11 19.15 34.29 38.26l17.31 19.32c2.53 2.82 5.92 5.72 7.49 9.22 1.66 3.72-.85 7.93-2.18 11.39q-9.19 23.76-17.69 47.8t-16.31 48.28q-3.91 12.14-7.62 24.32-1.81 5.93-3.59 11.87a98.3 98.3 0 0 0-3.2 11.64c-.5 3-.45 6.28 1.33 8.91s5.07 4.06 8.12 5.1a135.69 135.69 0 0 0 24.09 5.79q5.84.87 11.71 1.25 3 .2 6 .25a16.09 16.09 0 0 0 5.58-.41c7.5-2.61.44-13.15-1.71-17.11-1.92-3.53-4-7-6.17-10.36v1.42l48.11-77.54c7.32-11.81 15.14-23.55 20.14-36.6a84.62 84.62 0 0 0 4.78-39.23c-2.86-27.16-15.52-52.39-29-75.7q-10.53-18.16-22.78-35.25-6-8.4-12.46-16.52c-4.26-5.38-8.54-10.87-13.31-15.81-2.15-2.24-4.56-4.68-7.34-6.13s-6-1.74-9-3c-5.95-2.5-11.8-5.16-17.87-7.4-12.64-4.65-25.58-8.49-38.51-12.29-3-.88-6-1.7-9.05-2.61a1.3 1.3 0 0 0-.69 2.5c12.53 3.77 25.11 7.42 37.52 11.57 6.14 2 12.24 4.24 18.24 6.69 3 1.22 5.9 2.57 8.85 3.88s6 1.54 8.81 2.89 5.31 4 7.48 6.27 4.43 5 6.57 7.59q6.69 8.07 13 16.45 12.3 16.41 23 33.94c14 22.88 27.35 47.51 32.44 74.1 2.47 12.93 2.66 26.39-.74 39.17-3.5 13.17-10.64 24.92-17.76 36.4q-23.43 37.9-46.9 75.71l-5.92 9.54a1.41 1.41 0 0 0 0 1.42c2.18 3.37 4.25 6.82 6.17 10.36.91 1.66 1.78 3.35 2.63 5a17.47 17.47 0 0 1 2 5c.64 4.47-6 3.23-8.76 3.12q-6-.24-12-1a136.12 136.12 0 0 1-23.54-5.08c-3.14-1-7.29-1.89-9.31-4.74s-1.16-6.89-.3-10.06c4.28-15.62 9.33-31.08 14.29-46.49s10.12-30.74 15.5-46 11-30.67 16.88-45.89c1.29-3.36 3.17-6.89 3.63-10.48.43-3.3-1.07-6.08-3.1-8.57-5-6.18-10.66-11.93-16-17.86l-33.26-37c-10.05-11.18-20.4-22.23-29.1-34.52-8-11.26-14.65-23.69-16.93-37.42-2.11-12.68-1-26.4 4.27-38.21a51.87 51.87 0 0 1 4.46-8c.62-.91-.85-1.75-1.47-.86z" fill="#6b562f" className="fill-000000"></path><path d="M226 548.14C201.87 575 202 630 184.63 661.63c-8 14.55-18.74 27.32-29.44 40L28.31 851.81a13.25 13.25 0 0 0-3.09 5c-1.08 4.21 2.08 8.25 5.13 11.35a172.5 172.5 0 0 0 45.28 33c2.69 1.35 6.35 2.47 8.35.22 1.14-1.3 1.18-3.21 1.09-4.94a75.79 75.79 0 0 0-9.51-33.06c39.75-31.29 79.6-62.67 115.6-98.22 15.81-15.61 30.92-32.09 43.13-50.65 15.91-24.18 26.72-51.61 44.31-74.61 4.37-5.72 9.35-11.63 10-18.8s-25.37-74.1-62.57-73" fill="#6b562f" className="fill-000000"></path><path d="M225.34 547.47c-8.33 9.1-13.38 20.62-17.28 32.19-4.39 13-7.38 26.49-10.64 39.84-3.06 12.54-6.25 25.3-11.79 37-7.18 15.18-18.23 28.36-29 41.11q-37.12 44.05-74.37 88L45 829.76c-6.1 7.23-12.32 14.37-18.31 21.68-2.42 3-4 6.27-2.67 10.1 1.21 3.59 3.95 6.39 6.58 9a174 174 0 0 0 40 29.67c3.06 1.66 6.41 3.82 10 4s5.73-2.28 6-5.6c.36-4-.45-8.31-1.16-12.22A76.77 76.77 0 0 0 82 873.9a79.88 79.88 0 0 0-5.15-11.25l-.24 1.83c28.9-22.75 57.82-45.51 85.33-69.94 13.52-12 26.74-24.38 39.31-37.39 12.1-12.52 23.55-25.76 33.27-40.24 9.61-14.31 17.29-29.77 25.61-44.83 4.18-7.56 8.51-15 13.32-22.2q3.5-5.21 7.33-10.16a66.2 66.2 0 0 0 6.74-9.79c1.88-3.6 3.22-7.57 2.41-11.61a56 56 0 0 0-2.31-7.81 152 152 0 0 0-11.15-24 115.56 115.56 0 0 0-18.74-25.2c-6.83-6.74-15.25-12.63-24.88-14.35a34.92 34.92 0 0 0-6.85-.54c-2.27.06-2.28 3.58 0 3.53 19.86-.48 34.82 17.89 44.37 33.15a154.41 154.41 0 0 1 12.54 24.61 93 93 0 0 1 3.15 9c.28 1 .53 2.05.73 3.09.13.65.1.06.1.75a9.77 9.77 0 0 1-.16 1.87c-1.35 7.74-7.53 13.86-12 20a230.71 230.71 0 0 0-13.51 21.32c-8.25 14.5-15.56 29.52-24.28 43.76-18.21 29.74-43.59 54.48-69.22 77.81-26.55 24.16-54.6 46.59-82.77 68.81l-10.51 8.28a1.51 1.51 0 0 0-.23 1.82 75.5 75.5 0 0 1 8.34 23.62c.36 2 .62 4.1.8 6.16.14 1.76.6 4.06-.12 5.75-1.55 3.66-7.49-.1-9.61-1.21a171.08 171.08 0 0 1-38.78-27.92c-2.8-2.69-6.16-5.52-7.74-9.15-1.93-4.42 1.37-7.56 4-10.71l18-21.27 35.7-42.26q35.68-42.27 71.39-84.53c10.75-12.73 21.64-25.59 29.64-40.29 5.83-10.71 9.26-22.59 12.27-34.34 3.26-12.73 5.89-25.61 9.39-38.28 3.29-11.94 7.38-23.84 14.16-34.29a59.68 59.68 0 0 1 5-6.65c.8-.91-.51-2.24-1.33-1.33zM313.54 428.48q8.68-5.48 17.81-10.19c6-3.07 12.1-5.7 18.19-8.51 5.61-2.6 10.53-5.93 14.18-11 3.39-4.68 5.59-10.08 7.76-15.39 2.63-6.4 5.46-12.71 8.62-18.86 1.26-2.45 2.48-5.65 4.77-7.35 2.55-1.88 6.3-.45 8.95.56 5.86 2.23 10.92 6.26 15.63 10.31 4 3.44 8.93 8.09 8.78 13.82-.13 5.56-5.36 9.43-7.5 14.22a10.07 10.07 0 0 0-.37 7.91c.89 2.29 3.54 6.1.89 8.2-1.12.89.33 2.68 1.52 2 2.29-1.4 2.69-4.17 2-6.6-.75-2.81-2.86-5.18-2.27-8.25.47-2.39 2-4.45 3.37-6.39a35 35 0 0 0 4.05-6.51c2.39-5.64 0-11.16-3.76-15.54a54.5 54.5 0 0 0-6.78-6.37 74.68 74.68 0 0 0-7.82-5.77 37.91 37.91 0 0 0-8.65-4.11c-2.93-.92-6.34-1.66-9.12.09-2.45 1.55-3.8 4.3-5.09 6.79q-2.55 4.9-4.86 9.92c-2.79 6.09-5.06 12.41-7.91 18.46-2.7 5.71-6.2 11-11.5 14.63a65 65 0 0 1-9.95 5.23q-5.46 2.47-10.81 5.18a235.11 235.11 0 0 0-21 12.14c-.88.57-.07 2 .82 1.41zM482.53 311.27l-.78-6.59a10.33 10.33 0 0 0-1.07-4.08c-2-3.45-6.93-3.39-10.89-2.9l-52.59 6.51a7.79 7.79 0 0 0-4.34 1.46c-1.79 1.6-1.71 4.36-1.49 6.75a15.44 15.44 0 0 0 .26 2.8c.14.67 3-1.46 4.41-1.19 3.13.61 1.81 8.61 3.11 6.71a6.7 6.7 0 0 0 .13-6.58l49.64-5.86c1.59-.19 3.56-.2 4.36 1.19.57 1 .23 2.23.21 3.38s.63 2.57 1.77 2.46a2.46 2.46 0 0 0 1-.42l6.42-3.88" fill="#6b562f" className="fill-000000"></path><path d="M483.46 311.27c-.15-2.48-.38-5-.68-7.44a8.59 8.59 0 0 0-2.21-5.36c-2.6-2.56-6.73-2.54-10.11-2.2-10.41 1.06-20.79 2.53-31.18 3.81l-15.87 2c-2.52.31-5.05.55-7.55.95a6.68 6.68 0 0 0-5 2.91 9.46 9.46 0 0 0-1 5.42c.07 1.29-.11 3.42.53 4.59 1.41 2.6 4.64-1.75 5.77-.13a7.37 7.37 0 0 1 .78 3.35c.1.92.06 2.18.79 2.86 1.42 1.33 2.73-.53 3.21-1.72a8.7 8.7 0 0 0-.49-6.83l-1.2 2.1q15.14-1.82 30.28-3.61l14.89-1.74 3.73-.44a9.87 9.87 0 0 1 2.87-.12c2 .36.85 2.95 1.21 4.39.49 1.92 2.27 3.24 4.19 2.28 2.36-1.19 4.58-2.86 6.84-4.23a1.21 1.21 0 0 0-1.22-2.1q-3 1.81-6.06 3.57c-.31.17-.63.48-.91.31s-.23-.76-.24-1a17.19 17.19 0 0 0 0-2.87c-.82-4.36-6.42-3-9.44-2.66q-14.77 1.76-29.54 3.49l-16.63 1.93a1.42 1.42 0 0 0-1.2 2.1 6.78 6.78 0 0 1 .59 2.47 6.38 6.38 0 0 1-.62 2.55c-.19.53 0 0 0 .05l1.85.29.08.19c0-.09-.07-.23-.08-.32s-.07-.59-.11-.95c-.2-1.89-.37-4.21-1.83-5.62a3.36 3.36 0 0 0-3.17-.78 10 10 0 0 0-1.75.66c-.25.1-.49.22-.74.33-.47.2-.85.1 0 .47s.45.25.53-.22a2.81 2.81 0 0 0 0-.58c0-.82-.13-1.63-.16-2.45-.06-1.52 0-3.42 1.34-4.41s3.93-1 5.68-1.24l6.69-.83 13.4-1.66c9-1.12 18-2.22 27-3.37 3.45-.45 7.64-1.42 10.94.16 1.95.93 2.52 2.74 2.82 4.75.36 2.39.63 4.78 1.06 7.16.18 1 1.89.8 1.83-.24z" fill="#6b562f" className="fill-000000"></path><path d="M393.16 355.77a29.84 29.84 0 0 0 5.07-9.38c1.38-3.82 2.53-7.74 3.72-11.62 1.85-6 3.26-13.93 9.15-17.44a1.25 1.25 0 0 0-1.26-2.15c-5.95 3.49-7.76 10.63-9.59 16.79-1.21 4.07-2.3 8.17-3.54 12.22a33.49 33.49 0 0 1-4.88 10.55c-.58.77.71 1.77 1.33 1zM413.4 333.92a8 8 0 0 0 2-4.6 7.85 7.85 0 0 0-.19-2.6c-.13-.53-.19-.63.16-1.05s.65-.79.95-1.21c1.81-2.51 4.34-7.48 1.34-10.08a1.22 1.22 0 0 0-1.72 1.72c.89 1.09.42 2.8 0 4a20.37 20.37 0 0 1-2.56 4.24 2.65 2.65 0 0 0-.57 2.18 19.38 19.38 0 0 1 .56 2.15 6.19 6.19 0 0 1-1.22 4.3c-.54.75.68 1.69 1.28 1zM419.09 327.8a6.39 6.39 0 0 0 4.56-1.55 5.73 5.73 0 0 0 1.39-1.81 4.62 4.62 0 0 0 .62-2.58 1 1 0 0 0-1-.72 1 1 0 0 0-.94.72c0 .05-.1.5-.06.25a1.43 1.43 0 0 1 0 .22 4.21 4.21 0 0 1-.12.48c0 .14-.09.28-.14.42s0-.06 0 0l-.09.2a5 5 0 0 1-.52.83c.09-.11 0 0 0 .05l-.15.16c-.11.12-.22.24-.34.35l-.34.31-.06.05-.23.15c-.13.09-.27.16-.4.24l-.25.12c-.14.07 0 0-.08 0a5 5 0 0 1-.93.28h-.23c-.06 0-.06 0 0 0h-.65a.84.84 0 0 0 0 1.68zM423.61 331.51a3.69 3.69 0 0 0 3.4-.93 8.47 8.47 0 0 0 1.05-1.11 11.18 11.18 0 0 0 1.13-1.53 1 1 0 0 0-1.56-1.2 10.56 10.56 0 0 0-1.07 1.33l-.4.56c-.07.09 0 0 0 0a1.58 1.58 0 0 1-.12.15l-.23.26a3.94 3.94 0 0 1-.47.44c-.08.08.14-.08 0 0l-.13.08a2.69 2.69 0 0 1-.29.16h-.14a2.14 2.14 0 0 1-.32.08c-.13 0 .2 0 0 0h-.35a.86.86 0 0 0-.46 1.66zM430.19 333.38c0 1.57-2.32 2-3.45 2.51a4.52 4.52 0 0 0-2.65 2.76 10.9 10.9 0 0 1-2 4.32 20.49 20.49 0 0 1-3.7 3.32 8.61 8.61 0 0 0-2.93 3.59c-.71 1.63-1.23 3.35-1.78 5.05s-1.14 3.67-1.65 5.53c-.25.93-.5 1.86-.73 2.8-.14.54-.27 1.09-.4 1.63-.06.24-.11.47-.17.71q-.44.94.78.3l.59.76q-.19 1.13-1 .93c1 .79 2-.67 1.59-1.59a1.69 1.69 0 1 0-1.27 2.43c1.83-.18 1.84-2.66 2.18-4 .5-2 1.05-4 1.65-6s1.24-4 1.94-5.95a8 8 0 0 1 2.91-4.25c2.72-2 5.24-4.51 6.13-7.9.23-.87.17-1.6.95-2.17a20.44 20.44 0 0 1 2.27-1.2c1.32-.74 2.5-1.89 2.42-3.51a.86.86 0 0 0-1.71 0z" fill="#6b562f" className="fill-000000"></path><g fill="#f5be75" className="fill-18c4ff"><path d="M233 532.37c-1.51-2.71 1.63-5 3.53-6.27a33.54 33.54 0 0 0 5.2-4.47 83.5 83.5 0 0 0 8.58-11.7c5.65-8.59 11.24-17.31 15.4-26.74a82.52 82.52 0 0 0 5.29-16.44l-.85.65a7.13 7.13 0 0 0 4.65-2c.84-.82-.43-2.08-1.29-1.29a5.56 5.56 0 0 1-3.36 1.53.91.91 0 0 0-.86.65c-2 10.49-6.78 20.31-12.16 29.46-2.73 4.64-5.66 9.16-8.61 13.66-2.78 4.25-5.54 8.6-9.19 12.18a27.77 27.77 0 0 1-3.31 2.81 22.94 22.94 0 0 0-3.16 2.47c-1.62 1.68-2.48 4.17-1.25 6.32a.8.8 0 0 0 1.39-.81zM281.63 459.11l1.25-.42a.93.93 0 0 0 .53-.4.64.64 0 0 0 .1-.33.6.6 0 0 0 0-.35.87.87 0 0 0-1.07-.61l-1.25.42a.93.93 0 0 0-.53.4.75.75 0 0 0-.1.33.6.6 0 0 0 0 .35.87.87 0 0 0 1.07.61zM303.07 451.5a33.23 33.23 0 0 0 16.09 28.91.9.9 0 0 0 .91-1.56 31.58 31.58 0 0 1-15.43-27.35.79.79 0 0 0-1.57 0zM318.89 488.23h.84a.89.89 0 0 0 .88-.88v-.24a.86.86 0 0 0-.23-.39l-.18-.14a.83.83 0 0 0-.44-.12h-.84a.62.62 0 0 0-.33.08.59.59 0 0 0-.29.18.75.75 0 0 0-.18.28.65.65 0 0 0-.07.34v.23a.85.85 0 0 0 .22.38l.18.14a.86.86 0 0 0 .44.12zM230.5 606.83a76.29 76.29 0 0 0 20.9 38.56c1.48 1.46 3 2.86 4.63 4.2a28.31 28.31 0 0 0 5.1 3.76c1 .52 2.2-.8 1.28-1.66-1.31-1.25-2.89-2.23-4.29-3.37s-2.69-2.27-4-3.47a77.32 77.32 0 0 1-18.43-26.71 74.29 74.29 0 0 1-3.64-11.75c-.23-1-1.79-.59-1.58.44zM264.3 658.22l.84-.4a.78.78 0 0 0 .25-.23.62.62 0 0 0 .15-.29.7.7 0 0 0 0-.35.65.65 0 0 0-.11-.33l-.13-.18a.94.94 0 0 0-.39-.22h-.23a.83.83 0 0 0-.44.12l-.83.42a.6.6 0 0 0-.25.22.73.73 0 0 0-.15.29.7.7 0 0 0 0 .35.65.65 0 0 0 .11.32l.13.18a1 1 0 0 0 .38.22h.23a.86.86 0 0 0 .44-.12zM214.08 575a14.58 14.58 0 0 1 7.09.51c1.13.36 1.62-1.43.49-1.78a16.63 16.63 0 0 0-8-.42.89.89 0 0 0-.61 1.08.9.9 0 0 0 1.08.61zM247.6 578.64a23.41 23.41 0 0 1 13.64 4.66c.82.59 1.87-.76 1.08-1.41A22.61 22.61 0 0 0 247.6 577a.85.85 0 0 0 0 1.69zM339.32 721.64a61.54 61.54 0 0 1 12.51.1c1.1.12 1.09-1.61 0-1.73a61.53 61.53 0 0 0-12.51 0c-1.07.1-1.08 1.78 0 1.68zM343.31 729.89a17.27 17.27 0 0 0 6.86 1.19.87.87 0 0 0 0-1.73 16.12 16.12 0 0 1-6.41-1.08.85.85 0 0 0-1 .58.87.87 0 0 0 .59 1zM167.48 708.85a7.12 7.12 0 0 0 6.73 3.66.9.9 0 0 0 .88-.87.89.89 0 0 0-.88-.88 6.32 6.32 0 0 1-.87 0h-.7a5.61 5.61 0 0 1-.8-.23l-.2-.08h-.08l-.39-.19a4.77 4.77 0 0 1-1.23-.9 3 3 0 0 1-.3-.32l-.15-.16s-.13-.17 0-.07a6.19 6.19 0 0 1-.49-.81.88.88 0 0 0-1.51.89zM174.3 702.1a14.46 14.46 0 0 0 8.83 5.51 1 1 0 0 0 1.15-.65.93.93 0 0 0-.65-1.15 12.8 12.8 0 0 1-7.94-4.79c-.6-.79-2 .27-1.39 1.08z"></path></g><path d="M665.16 270.64a118 118 0 0 1-.57-17.63c0-.18 0-.39.18-.48a.59.59 0 0 1 .45 0A45.41 45.41 0 0 1 684.86 265c.15.16.3.41.17.58s-.42-.21-.2-.2" fill="#6b562f" className="fill-000000"></path><path d="M666 270.64c0-2.93-.31-5.87-.37-8.8v-4.42c0-.67 0-1.34.06-2s-.17-1.88.13-2.29l-.7.54c-.32.06-.07 0 .13.12s.53.18.79.28l1.26.47c1 .37 1.88.75 2.8 1.18a44.41 44.41 0 0 1 5.16 2.81 43.4 43.4 0 0 1 4.63 3.37c.77.64 1.52 1.32 2.25 2 .32.31.64.63.95.95l.59.6c.2.22.23.44.24.08l.56-1-.1.07.86-.11.27.15v1.45l.06-.07a1 1 0 0 0-1-1.68h-.08a1 1 0 0 0-.76 1 1.25 1.25 0 0 0 2.44.41c.52-1.42-1.44-2.79-2.32-3.63a46.32 46.32 0 0 0-7.66-5.94 43.66 43.66 0 0 0-8.73-4.22c-1.17-.41-3.25-1.42-3.9.26a7.93 7.93 0 0 0-.18 2.53v3q0 3.23.24 6.42a41.93 41.93 0 0 0 .75 6.62.83.83 0 0 0 1.62-.22zM716.81 259.26a29.29 29.29 0 0 1 15.89-18.55 1.57 1.57 0 0 1 1-.2 1.59 1.59 0 0 1 .84 1 30.5 30.5 0 0 1 2.34 16.33l-1 .05" fill="#6b562f" className="fill-000000"></path><path d="M717.58 259.47a30.42 30.42 0 0 1 11.29-15.22c.66-.45 1.34-.87 2-1.27a21.47 21.47 0 0 0 2.14-1.09c.33 0 .41-.11.22-.26a2.73 2.73 0 0 1 .25.48c.21.45.39.92.56 1.39.33.91.63 1.83.87 2.77a30 30 0 0 1 .7 11.55l.94-1.23-.93.18c-1.34.23-.89 2.14.31 2.24l1 .1c.75.07 1.2-.66 1.28-1.29a31.9 31.9 0 0 0-.43-10.45 30.45 30.45 0 0 0-1.51-5c-.53-1.34-1.12-3.12-2.88-3.07-1.36 0-2.95 1.18-4.08 1.87a31.6 31.6 0 0 0-3.54 2.53 29.39 29.39 0 0 0-5.83 6.41 27 27 0 0 0-3.91 9 .8.8 0 0 0 1.55.43z" fill="#6b562f" className="fill-000000"></path><path d="M727.65 258.08c-7.41-.48-14.79 1.05-22.06 2.56l-29.12 6.07c-5.4 1.12-11.43 2.69-14.19 7.47-1.73 3-1.76 6.67-1.65 10.14a200.24 200.24 0 0 0 4.59 36.57c.46 2.08 1.06 4.32 2.77 5.59 1.46 1.09 3.41 1.22 5.23 1.26A152.51 152.51 0 0 0 740.34 314c2.94-1.35 6-2.95 7.57-5.79a15 15 0 0 0 1.41-6.3 125.47 125.47 0 0 0-1.12-27.25c-.64-4.22-1.55-8.54-4-12.06s-6.68-6.08-10.88-5.31" fill="#6b562f" className="fill-000000"></path><path d="M727.65 257.1c-9.83-.66-19.61 1.85-29.19 3.76l-14.59 2.9c-4.28.85-8.67 1.5-12.86 2.75-3.39 1-6.81 2.59-9.06 5.41-2.63 3.3-3 7.49-2.94 11.56a195.32 195.32 0 0 0 3 29.25c.42 2.39.88 4.78 1.39 7.15a19.52 19.52 0 0 0 1.8 5.73c2.3 3.95 7 3.7 11 3.72a154.68 154.68 0 0 0 27.5-2.33 152.92 152.92 0 0 0 26.9-7.33 116.61 116.61 0 0 0 12.19-5.17c3.59-1.83 6.58-4.42 7.49-8.49a40 40 0 0 0 .67-7q.15-3.64.09-7.31a127.37 127.37 0 0 0-1.09-14.6c-1.06-7.93-2.91-17.58-11.5-20.6a10.89 10.89 0 0 0-5.45-.5c-1.64.27-.93 2.72.68 2.48 3.58-.55 7.1 1.65 9.14 4.46 2.36 3.25 3.25 7.3 3.87 11.2a122.51 122.51 0 0 1 1.19 27 15.51 15.51 0 0 1-1.17 6.1 9.4 9.4 0 0 1-3.62 3.62 68.81 68.81 0 0 1-11 5 152.94 152.94 0 0 1-24.32 7.22 150.56 150.56 0 0 1-25.47 3.08c-2.13.07-4.27.1-6.4.08a20.47 20.47 0 0 1-5.85-.41c-1.81-.56-2.56-2.16-3-3.87-.57-2-.94-4.16-1.34-6.24a196.25 196.25 0 0 1-3.31-26.79c-.22-4-.77-8.4.46-12.26 1.05-3.26 3.82-5.31 6.88-6.54a67.08 67.08 0 0 1 10.72-2.81l13.54-2.95c8.86-1.93 17.8-4.42 26.85-5.18a50.83 50.83 0 0 1 6.76-.13c1.26.06 1.25-1.88 0-2z" fill="#6b562f" className="fill-000000"></path><path d="M727.65 257.1c-9.83-.66-19.61 1.85-29.19 3.76l-14.59 2.9c-4.28.85-8.67 1.5-12.86 2.75-3.39 1-6.81 2.59-9.06 5.41-2.63 3.3-3 7.49-2.94 11.56a195.32 195.32 0 0 0 3 29.25c.42 2.39.88 4.78 1.39 7.15a19.52 19.52 0 0 0 1.8 5.73c2.3 3.95 7 3.7 11 3.72a154.68 154.68 0 0 0 27.5-2.33 152.92 152.92 0 0 0 26.9-7.33 116.61 116.61 0 0 0 12.19-5.17c3.59-1.83 6.58-4.42 7.49-8.49a40 40 0 0 0 .67-7q.15-3.64.09-7.31a127.37 127.37 0 0 0-1.09-14.6c-1.06-7.93-2.91-17.58-11.5-20.6a10.89 10.89 0 0 0-5.45-.5c-1.64.27-.93 2.72.68 2.48 3.58-.55 7.1 1.65 9.14 4.46 2.36 3.25 3.25 7.3 3.87 11.2a122.51 122.51 0 0 1 1.19 27 15.51 15.51 0 0 1-1.17 6.1 9.4 9.4 0 0 1-3.62 3.62 68.81 68.81 0 0 1-11 5 152.94 152.94 0 0 1-24.32 7.22 150.56 150.56 0 0 1-25.47 3.08c-2.13.07-4.27.1-6.4.08a20.47 20.47 0 0 1-5.85-.41c-1.81-.56-2.56-2.16-3-3.87-.57-2-.94-4.16-1.34-6.24a196.25 196.25 0 0 1-3.31-26.79c-.22-4-.77-8.4.46-12.26 1.05-3.26 3.82-5.31 6.88-6.54a67.08 67.08 0 0 1 10.72-2.81l13.54-2.95c8.86-1.93 17.8-4.42 26.85-5.18a50.83 50.83 0 0 1 6.76-.13c1.26.06 1.25-1.88 0-2z" fill="#6b562f" className="fill-000000"></path><path d="M661.59 276.47c-.76 3.31 2.64 5.35 5 6.85a89.61 89.61 0 0 0 10.41 5.54c3.49 1.59 7.06 3 10.64 4.34s7.3 3 11.11 3.75a15.56 15.56 0 0 0 9.66-1 14.3 14.3 0 0 0 3-2.15l3.92-3.29a160.53 160.53 0 0 0 15.67-14.7 67.32 67.32 0 0 0 7.17-9.3c.92-1.46 2-3.1 2.2-4.87a3.46 3.46 0 0 0-2.44-3.71 1.29 1.29 0 0 0-.68 2.48c1.81.56-2.52 6.38-3.09 7.19a72.77 72.77 0 0 1-5.8 7.06 160.78 160.78 0 0 1-13.72 12.9c-2.11 1.81-4.19 3.74-6.42 5.38a11.07 11.07 0 0 1-7.06 1.63c-3.39-.25-6.65-1.59-9.83-2.7s-6.31-2.22-9.43-3.44a113.06 113.06 0 0 1-10.57-4.67q-2.43-1.25-4.76-2.67c-1.41-.85-3.79-2.2-3.4-4.18.21-1-1.36-1.49-1.6-.44z" fill="#f5be75" className="fill-18c4ff"></path><path d="M659.43 290a23 23 0 0 1-15-15.56L613.58 307a18.84 18.84 0 0 1 12.24-3.32 13 13 0 0 1 10.3 6.88 9.5 9.5 0 0 1 18.19-.75 16.09 16.09 0 0 1 1.75-5.36 5.47 5.47 0 0 1 4.59-2.83" fill="#6b562f" className="fill-000000"></path><path d="M659.66 289.21c-6.6-2.38-12.36-8.13-14-15.07a1.29 1.29 0 0 0-2.13-.56c-2.69 2.58-5.2 5.38-7.77 8.07l-7.76 8.09q-7.74 8.1-15.43 16.24c-1.07 1.12.32 3.1 1.7 2.21 3.53-2.29 7.83-3.79 12.07-3.06a11.64 11.64 0 0 1 8.55 6.11 1.42 1.42 0 0 0 2.57-.34 8.09 8.09 0 0 1 15.47-.75c.44 1.19 2.42 1.49 2.72 0 .55-2.72 1.44-7.13 5-7.25a1.32 1.32 0 0 0 0-2.63c-5 0-6.87 5-7.7 9.13h2.72a10.91 10.91 0 0 0-20.9.75l2.57-.33a14.26 14.26 0 0 0-10.23-7.4 20 20 0 0 0-14.24 3.34l1.7 2.21q7.73-8.13 15.43-16.25l7.51-8c2.61-2.77 5.33-5.48 7.83-8.35l-2.13-.57c2.53 7.62 8.14 13.79 16 16 1.06.3 1.47-1.28.45-1.65zM749.67 274.3a28 28 0 0 0 13.71-22.21 89.84 89.84 0 0 0 39.27 10.48 32.51 32.51 0 0 0-24.48 19.64 9.44 9.44 0 0 0-16 3.74 6.54 6.54 0 0 0-12.32-.3" fill="#6b562f" className="fill-000000"></path><path d="M750.1 275a28.62 28.62 0 0 0 14.57-23l-1.95 1.12a92.12 92.12 0 0 0 39.93 10.7l-.36-2.64a34 34 0 0 0-25.45 20.57l2.31-.61a10.84 10.84 0 0 0-18.39 4.35h2.72a8.23 8.23 0 0 0-7.24-5.54 8 8 0 0 0-7.76 5.25c-.52 1.44 1.83 2.45 2.5 1a5.6 5.6 0 0 1 5.08-3.46 5.31 5.31 0 0 1 4.7 3.45 1.43 1.43 0 0 0 2.72 0 8.14 8.14 0 0 1 13.71-3.14 1.41 1.41 0 0 0 2.32-.61A31.28 31.28 0 0 1 803 263.87c1.55-.27 1.11-2.6-.35-2.65A89.07 89.07 0 0 1 764 251a1.31 1.31 0 0 0-1.95 1.12 27.66 27.66 0 0 1-12.85 21.46.86.86 0 0 0 .87 1.49z" fill="#6b562f" className="fill-000000"></path><g fill="#f5be75" className="fill-18c4ff"><path d="M637 303.21a69.9 69.9 0 0 1 6.53-22.34c.48-1-1-1.87-1.49-.87a70.4 70.4 0 0 0-6.58 23.21c-.1 1 1.43 1 1.54 0zM649.42 291.4a71 71 0 0 0 2.58 12.15.82.82 0 0 0 1.58-.44 93.47 93.47 0 0 1-2.65-11.91c-.13-.84-1.6-.65-1.49.2zM649.33 287.9l.28-.12a.86.86 0 0 0 .39-.23l.13-.17a.89.89 0 0 0 .12-.45.62.62 0 0 0-.07-.33.75.75 0 0 0-.18-.28.7.7 0 0 0-.29-.19.62.62 0 0 0-.33-.07.83.83 0 0 0-.44.12l-.27.16a.64.64 0 0 0-.24.22.54.54 0 0 0-.15.29v.22a.62.62 0 0 0 .07.33.45.45 0 0 0 .11.19.64.64 0 0 0 .24.22l.2.09a.9.9 0 0 0 .46 0zM666.1 256.34c.63 1.49 1.19 3 1.68 4.56.25.76.47 1.53.68 2.3s.37 1.62.62 2.41a.81.81 0 0 0 1.57-.43 27.64 27.64 0 0 0-1.37-4.88 54.68 54.68 0 0 0-1.85-4.74.76.76 0 0 0-1-.27.79.79 0 0 0-.28 1zM733.12 241.29a59.52 59.52 0 0 0-2.64 13.42c-.11 1.18 1.74 1.18 1.84 0a77.54 77.54 0 0 1 2.28-13 .77.77 0 0 0-1.48-.41zM763.09 281.53c.65-6 1-11.93 1.13-17.93a.88.88 0 0 0-1.75 0c-.13 6-.46 12-1 17.93-.1 1.07 1.55 1.05 1.66 0zM763.62 259.66a.79.79 0 0 0 0-1.57.79.79 0 0 0 0 1.57zM765.44 255.25a90 90 0 0 1 6.78 11.53 129.47 129.47 0 0 1 5.1 12.59.81.81 0 0 0 1.56-.43c-2.37-8.73-6.94-17.1-12.13-24.45-.56-.79-1.87-.05-1.31.76zM672.28 310.24c2.09-.28 4.18-.54 6.26-.86a20 20 0 0 0 5.78-1.34c1.11-.53.14-2.18-1-1.65a20.43 20.43 0 0 1-5.55 1.18c-2 .33-4 .69-6 1a.86.86 0 0 0-.6 1 .87.87 0 0 0 1 .59zM673.71 314.83a68.71 68.71 0 0 0 11.22-1.83c1.2-.27.69-2.14-.51-1.84-3.61.9-7.26 1.49-10.92 2.14-.87.15-.67 1.59.21 1.53zM677.32 318.84l3.06.05a.88.88 0 0 0 0-1.75l-3.06.11a.8.8 0 0 0-.8.79.82.82 0 0 0 .8.8z"></path></g><path d="M706.65 134a118.13 118.13 0 0 1-.57-17.64.56.56 0 0 1 .19-.48.61.61 0 0 1 .44 0 45.35 45.35 0 0 1 19.64 12.42c.15.17.31.41.17.59s-.42-.22-.2-.21" fill="#6b562f" className="fill-000000"></path><path d="M707.48 134c0-2.94-.32-5.88-.38-8.81v-6.42c0-.52-.16-1.88.14-2.29l-.71.54c-.31.06-.06 0 .13.12s.53.19.8.28l1.26.47c.94.37 1.88.75 2.8 1.18a45.83 45.83 0 0 1 5.15 2.81 41.46 41.46 0 0 1 4.63 3.37c.77.65 1.53 1.32 2.25 2 .33.31.64.63 1 1l.58.6c.21.22.24.44.24.09l.57-1-.1.07.85-.11.27.15v1.46l.06-.08c.6-.72.06-2-1-1.67h-.09a1 1 0 0 0-.76 1 1.25 1.25 0 0 0 2.44.41c.52-1.42-1.44-2.79-2.31-3.63a46.94 46.94 0 0 0-7.67-5.94 44.2 44.2 0 0 0-8.73-4.22c-1.17-.41-3.25-1.42-3.9.27a7.91 7.91 0 0 0-.17 2.53v3c0 2.14.11 4.28.25 6.41a42 42 0 0 0 .74 6.63.83.83 0 0 0 1.63-.22zM758.3 122.65a29.31 29.31 0 0 1 15.9-18.55 1.48 1.48 0 0 1 1-.19 1.55 1.55 0 0 1 .84 1 30.5 30.5 0 0 1 2.34 16.33l-1 .05" fill="#6b562f" className="fill-000000"></path><path d="M759.08 122.86a30.36 30.36 0 0 1 11.29-15.22c.66-.45 1.34-.87 2-1.27a21.47 21.47 0 0 0 2.14-1.09c.33 0 .41-.11.23-.26a3.62 3.62 0 0 1 .25.48c.21.45.38.92.55 1.39.34.91.63 1.83.88 2.77a30 30 0 0 1 .69 11.55l.94-1.23-.92.18c-1.35.24-.9 2.14.3 2.24l1 .1c.75.07 1.21-.66 1.29-1.29a31.91 31.91 0 0 0-.44-10.45 29.52 29.52 0 0 0-1.51-5c-.53-1.34-1.11-3.12-2.87-3.07-1.36 0-3 1.19-4.09 1.87a32.54 32.54 0 0 0-3.54 2.53 29.34 29.34 0 0 0-5.82 6.41 26.93 26.93 0 0 0-3.92 9 .81.81 0 0 0 1.56.43z" fill="#6b562f" className="fill-000000"></path><path d="M769.14 121.47c-7.41-.47-14.79 1-22.06 2.56L718 130.1c-5.4 1.13-11.44 2.69-14.2 7.47-1.73 3-1.76 6.67-1.64 10.14a199.16 199.16 0 0 0 4.59 36.57c.45 2.08 1.06 4.32 2.76 5.59 1.46 1.1 3.41 1.22 5.24 1.26a152.4 152.4 0 0 0 67.12-13.75c2.94-1.35 6-2.95 7.56-5.78a15.09 15.09 0 0 0 1.42-6.31 126.13 126.13 0 0 0-1.16-27.29c-.64-4.22-1.54-8.54-4-12.06s-6.68-6.07-10.88-5.31" fill="#f5be75" className="fill-18c4ff"></path><path d="M769.14 120.49c-9.83-.66-19.61 1.85-29.18 3.76l-14.6 2.9c-4.28.85-8.67 1.5-12.86 2.75-3.39 1-6.81 2.59-9.06 5.41-2.63 3.3-3 7.49-2.93 11.56a195.18 195.18 0 0 0 3 29.25c.42 2.39.89 4.78 1.39 7.15a19.42 19.42 0 0 0 1.8 5.73c2.3 3.95 7 3.7 11 3.72a154.56 154.56 0 0 0 54.4-9.69 118.86 118.86 0 0 0 12.19-5.18c3.59-1.83 6.58-4.42 7.5-8.49a39.05 39.05 0 0 0 .66-7q.15-3.65.09-7.31a124.82 124.82 0 0 0-1.09-14.59c-1.05-7.94-2.91-17.59-11.5-20.61a10.88 10.88 0 0 0-5.43-.42c-1.63.27-.93 2.72.69 2.48 3.57-.54 7.09 1.65 9.13 4.46 2.37 3.25 3.26 7.3 3.87 11.2a123.12 123.12 0 0 1 1.2 27 15.88 15.88 0 0 1-1.17 6.1 9.47 9.47 0 0 1-3.62 3.62 68.44 68.44 0 0 1-11 5 152.66 152.66 0 0 1-24.32 7.23 151.45 151.45 0 0 1-25.46 3.07c-2.14.07-4.27.1-6.41.09a20.77 20.77 0 0 1-5.84-.42c-1.82-.56-2.57-2.16-3-3.87-.56-2-.93-4.16-1.34-6.24a197.83 197.83 0 0 1-3.31-26.79c-.22-4-.77-8.4.47-12.26 1-3.26 3.81-5.31 6.88-6.54a67 67 0 0 1 10.71-2.85l13.56-3c8.85-1.93 17.8-4.42 26.85-5.18a50.71 50.71 0 0 1 6.75-.13c1.27.06 1.25-1.88 0-2z" fill="#6b562f" className="fill-000000"></path><path d="M703.09 139.86c-.75 3.23 2.48 5.25 4.82 6.73a87.31 87.31 0 0 0 10 5.37c3.27 1.52 6.62 2.86 10 4.14a113.28 113.28 0 0 0 10.8 3.9 15 15 0 0 0 10.65-.53c3-1.44 5.58-3.88 8.13-6a142.83 142.83 0 0 0 15.24-14.27 66.42 66.42 0 0 0 7.06-9.39c.93-1.52 2.14-3.25 2.12-5.11a3.41 3.41 0 0 0-2.46-3.31 1.28 1.28 0 0 0-.69 2.47c1.82.56-2.49 6.4-3.06 7.22a67.2 67.2 0 0 1-5.61 7 140.72 140.72 0 0 1-13.22 12.38 71.75 71.75 0 0 1-7 5.66 11.8 11.8 0 0 1-9.06 1.66 67 67 0 0 1-9.22-2.89c-3-1.06-6-2.14-9-3.32a109.3 109.3 0 0 1-10.12-4.55 74.16 74.16 0 0 1-4.75-2.69c-1.31-.82-3.37-2.12-3-3.95.21-1-1.35-1.49-1.59-.44zM700.93 153.43a23 23 0 0 1-15-15.56l-30.86 32.5a18.79 18.79 0 0 1 12.24-3.37 13 13 0 0 1 10.31 6.88 9.5 9.5 0 0 1 18.19-.75 16.17 16.17 0 0 1 1.74-5.35 5.48 5.48 0 0 1 4.6-2.84" fill="#6b562f" className="fill-000000"></path><path d="M701.15 152.61c-6.6-2.39-12.36-8.14-14-15.07A1.29 1.29 0 0 0 685 137c-2.69 2.58-5.19 5.38-7.77 8.07l-7.75 8.09q-7.72 8.1-15.43 16.24c-1.06 1.12.32 3.1 1.7 2.21 3.53-2.29 7.83-3.79 12.08-3.06a11.67 11.67 0 0 1 8.54 6.11 1.43 1.43 0 0 0 2.58-.34 8.09 8.09 0 0 1 15.46-.75c.44 1.19 2.43 1.49 2.73 0 .55-2.72 1.44-7.13 5-7.24a1.32 1.32 0 0 0 0-2.64c-5 0-6.87 5-7.71 9.13h2.73a10.91 10.91 0 0 0-20.91.75l2.57-.33a14.24 14.24 0 0 0-10.23-7.4 20 20 0 0 0-14.23 3.34l1.7 2.21q7.71-8.13 15.42-16.25c2.51-2.65 5-5.32 7.51-8s5.34-5.47 7.83-8.35l-2.13-.57c2.53 7.62 8.15 13.8 16 16a.85.85 0 0 0 .45-1.64zM791.16 137.69a28 28 0 0 0 13.71-22.2A90 90 0 0 0 844.14 126a32.55 32.55 0 0 0-24.47 19.64 9.45 9.45 0 0 0-16.06 3.74 6.54 6.54 0 0 0-12.32-.3" fill="#6b562f" className="fill-000000"></path><path d="M791.6 138.44a28.68 28.68 0 0 0 14.57-23l-2 1.12a92.11 92.11 0 0 0 39.93 10.69l-.36-2.64a34 34 0 0 0-25.45 20.57l2.31-.61a10.84 10.84 0 0 0-18.35 4.43H805a8.21 8.21 0 0 0-7.24-5.54 8 8 0 0 0-7.76 5.25c-.52 1.45 1.83 2.45 2.5 1a5.65 5.65 0 0 1 5.09-3.46 5.29 5.29 0 0 1 4.69 3.45 1.42 1.42 0 0 0 2.72 0 8.15 8.15 0 0 1 13.72-3.14A1.4 1.4 0 0 0 821 146a31.31 31.31 0 0 1 23.5-18.71c1.54-.27 1.1-2.6-.36-2.65a89.07 89.07 0 0 1-38.62-10.25 1.32 1.32 0 0 0-1.95 1.13 27.68 27.68 0 0 1-12.84 21.45.87.87 0 0 0 .87 1.5z" fill="#6b562f" className="fill-000000"></path><g fill="#f5be75" className="fill-18c4ff"><path d="M678.47 166.6a69.51 69.51 0 0 1 6.53-22.33c.48-1-1-1.88-1.5-.88a70.39 70.39 0 0 0-6.57 23.21c-.11 1 1.43 1 1.54 0zM690.91 154.79a69.84 69.84 0 0 0 2.57 12.15.81.81 0 0 0 1.57-.43 95.37 95.37 0 0 1-2.65-11.92c-.12-.84-1.6-.65-1.49.2zM690.82 151.29l.28-.12a.94.94 0 0 0 .39-.22l.14-.18a.88.88 0 0 0 .12-.44.66.66 0 0 0-.08-.34.78.78 0 0 0-.46-.46.68.68 0 0 0-.34-.08.86.86 0 0 0-.44.12l-.27.16a.64.64 0 0 0-.24.22.73.73 0 0 0-.15.29v.23a.71.71 0 0 0 .07.32.4.4 0 0 0 .11.19.64.64 0 0 0 .24.22l.21.09a.86.86 0 0 0 .45 0zM707.59 119.73c.64 1.49 1.2 3 1.69 4.56.24.76.47 1.53.67 2.3s.37 1.62.62 2.41a.82.82 0 0 0 1.58-.43 29.74 29.74 0 0 0-1.37-4.88q-.82-2.4-1.85-4.74a.78.78 0 0 0-1.06-.27.79.79 0 0 0-.28 1zM774.61 104.68A60.07 60.07 0 0 0 772 118.1c-.11 1.18 1.75 1.18 1.84 0a78.59 78.59 0 0 1 2.29-13 .77.77 0 0 0-1.49-.41zM804.58 144.92c.65-6 1-11.93 1.13-17.93a.88.88 0 0 0-1.75 0c-.13 6-.45 12-1 17.93-.11 1.07 1.54 1.05 1.65 0zM805.12 123.05a.79.79 0 0 0 0-1.57.79.79 0 0 0 0 1.57zM806.93 118.64a90 90 0 0 1 6.78 11.53 127.07 127.07 0 0 1 5.11 12.59c.35 1 1.83.59 1.55-.42-2.37-8.74-6.93-17.11-12.13-24.46-.56-.79-1.87 0-1.31.76z"></path></g><g fill="#ffffff" className="fill-ffffff"><path d="M713.77 173.63c2.09-.28 4.18-.54 6.27-.85a20.23 20.23 0 0 0 5.77-1.35c1.12-.53.15-2.18-1-1.65-1.7.81-3.72.89-5.55 1.19-2 .32-4 .68-6 1a.86.86 0 0 0-.6 1 .88.88 0 0 0 1 .59zM715.2 178.22a70.09 70.09 0 0 0 11.23-1.82c1.19-.28.69-2.15-.51-1.85-3.61.9-7.27 1.49-10.93 2.14-.86.15-.67 1.59.21 1.53zM718.81 182.23l3.06.05a.89.89 0 0 0 .88-.87.9.9 0 0 0-.88-.88l-3.06.11a.8.8 0 0 0 0 1.59z"></path></g><path d="M837.51 189.53a118 118 0 0 1-.57-17.64c0-.17 0-.38.19-.47a.52.52 0 0 1 .44 0 45.26 45.26 0 0 1 19.64 12.42c.15.16.31.4.17.58s-.42-.21-.2-.2" fill="#6b562f" className="fill-000000"></path><path d="M838.34 189.53c0-2.93-.32-5.87-.38-8.81v-6.41c0-.51-.16-1.87.14-2.29l-.71.55c-.31.06-.06 0 .13.12s.53.18.8.27l1.26.47c.94.37 1.88.76 2.8 1.18a45.9 45.9 0 0 1 5.15 2.82 42.69 42.69 0 0 1 4.63 3.36c.77.65 1.52 1.32 2.25 2l1 .94c.19.2.39.4.58.61s.24.43.24.08l.57-1-.1.07.85-.11.27.15V185l.06-.07a1 1 0 0 0-1-1.68h-.09a1 1 0 0 0-.76 1 1.25 1.25 0 0 0 2.44.41c.52-1.41-1.44-2.79-2.31-3.62a47 47 0 0 0-7.67-5.95 44.2 44.2 0 0 0-8.73-4.22c-1.17-.41-3.25-1.42-3.9.27a7.93 7.93 0 0 0-.17 2.53v3c0 2.14.11 4.28.24 6.42a43.28 43.28 0 0 0 .75 6.62.83.83 0 0 0 1.63-.22zM889.16 178.14a29.31 29.31 0 0 1 15.9-18.55 1.54 1.54 0 0 1 1-.19c.42.12.66.57.84 1a30.54 30.54 0 0 1 2.34 16.34h-1" fill="#6b562f" className="fill-000000"></path><path d="M889.94 178.36a30.32 30.32 0 0 1 11.29-15.22c.66-.46 1.34-.88 2-1.27a21.53 21.53 0 0 0 2.14-1.1c.33 0 .41-.1.23-.26.09.16.17.32.25.48.21.45.38.92.55 1.39.34.91.63 1.83.88 2.77a30 30 0 0 1 .69 11.56l.94-1.24c-.31.06-.61.13-.92.18-1.35.24-.9 2.15.3 2.25.32 0 .64.06 1 .09.75.08 1.21-.65 1.29-1.28a31.89 31.89 0 0 0-.44-10.45 29.9 29.9 0 0 0-1.51-5c-.53-1.34-1.11-3.12-2.87-3.07-1.36 0-3 1.19-4.09 1.88a32.46 32.46 0 0 0-3.54 2.52 29.57 29.57 0 0 0-5.83 6.41 27 27 0 0 0-3.92 9 .81.81 0 0 0 1.56.43z" fill="#6b562f" className="fill-000000"></path><path d="M900 177c-7.41-.47-14.79 1-22.06 2.57l-29.11 6.06c-5.41 1.13-11.44 2.69-14.2 7.47-1.73 3-1.76 6.67-1.64 10.14a199.16 199.16 0 0 0 4.59 36.57c.45 2.08 1.06 4.33 2.76 5.6 1.46 1.09 3.41 1.21 5.23 1.26a152.57 152.57 0 0 0 67.13-13.76c2.94-1.34 6-3 7.56-5.78a15.09 15.09 0 0 0 1.42-6.31 126.13 126.13 0 0 0-1.13-27.25c-.64-4.22-1.55-8.53-4-12.05s-6.68-6.08-10.88-5.32" fill="#ffffff" className="fill-ffffff"></path><path d="M900 176c-9.83-.66-19.61 1.86-29.18 3.76l-14.6 2.9c-4.28.85-8.67 1.51-12.86 2.75-3.39 1-6.81 2.6-9.06 5.42-2.63 3.29-3 7.48-2.93 11.56a195.44 195.44 0 0 0 3 29.25c.42 2.39.89 4.77 1.39 7.14a19.33 19.33 0 0 0 1.8 5.73c2.3 4 7 3.71 11 3.73a154.6 154.6 0 0 0 27.5-2.37 152.68 152.68 0 0 0 26.9-7.33 118.86 118.86 0 0 0 12.19-5.18c3.59-1.82 6.58-4.41 7.5-8.49a39 39 0 0 0 .66-7q.15-3.66.09-7.32a125 125 0 0 0-1.1-14.55c-1-7.94-2.91-17.58-11.5-20.61a10.88 10.88 0 0 0-5.43-.42c-1.63.28-.93 2.72.69 2.48 3.57-.54 7.09 1.66 9.13 4.46 2.37 3.25 3.26 7.3 3.87 11.2a122.51 122.51 0 0 1 1.19 27 15.62 15.62 0 0 1-1.16 6.1 9.47 9.47 0 0 1-3.62 3.62 67.57 67.57 0 0 1-11 5 152.66 152.66 0 0 1-24.28 7.17 149.41 149.41 0 0 1-25.46 3c-2.14.08-4.27.11-6.41.09a20.77 20.77 0 0 1-5.84-.42c-1.82-.56-2.57-2.16-3.05-3.87-.56-2-.93-4.16-1.34-6.24a197.63 197.63 0 0 1-3.31-26.79c-.22-4-.77-8.4.47-12.26 1-3.25 3.81-5.3 6.88-6.53a65.93 65.93 0 0 1 10.71-2.81l13.56-3c8.85-1.93 17.8-4.41 26.85-5.18a50.71 50.71 0 0 1 6.75-.13c1.27.06 1.25-1.87 0-2z" fill="#6b562f" className="fill-000000"></path><path d="M834 195.35c-.75 3.24 2.48 5.25 4.82 6.73a85.85 85.85 0 0 0 10 5.38c3.27 1.51 6.62 2.85 10 4.14 3.56 1.36 7.14 2.86 10.82 3.86a15 15 0 0 0 10.65-.53c3-1.44 5.58-3.88 8.13-6a144 144 0 0 0 15.24-14.28 65.85 65.85 0 0 0 7.06-9.39c.93-1.52 2.14-3.25 2.12-5.11a3.41 3.41 0 0 0-2.46-3.31 1.29 1.29 0 0 0-.69 2.48c1.82.55-2.49 6.39-3.06 7.22a68.15 68.15 0 0 1-5.61 7 140.82 140.82 0 0 1-13.22 12.39 72.16 72.16 0 0 1-7.05 5.66 11.77 11.77 0 0 1-9 1.65 66.93 66.93 0 0 1-9.22-2.88c-3-1.06-6-2.15-9-3.33a106.71 106.71 0 0 1-10.12-4.55 74.16 74.16 0 0 1-4.75-2.69c-1.31-.81-3.37-2.12-3-3.94.21-1-1.35-1.49-1.59-.45zM831.79 208.92a22.94 22.94 0 0 1-15-15.55l-30.86 32.49a18.85 18.85 0 0 1 12.24-3.33 13 13 0 0 1 10.31 6.88 9.5 9.5 0 0 1 18.19-.75 16.25 16.25 0 0 1 1.74-5.35 5.5 5.5 0 0 1 4.6-2.84" fill="#6b562f" className="fill-000000"></path><path d="M832 208.1c-6.6-2.38-12.36-8.14-14-15.07a1.28 1.28 0 0 0-2.13-.56c-2.69 2.58-5.19 5.37-7.77 8.06l-7.75 8.09q-7.73 8.12-15.43 16.25c-1.06 1.12.32 3.1 1.7 2.2 3.53-2.29 7.83-3.79 12.08-3a11.63 11.63 0 0 1 8.54 6.1 1.43 1.43 0 0 0 2.58-.33 8.08 8.08 0 0 1 15.48-.84c.44 1.19 2.43 1.48 2.73 0 .55-2.73 1.44-7.14 5-7.25a1.32 1.32 0 0 0 0-2.64c-5 0-6.88 5-7.71 9.14H828a10.91 10.91 0 0 0-20.91.75l2.57-.34a14.26 14.26 0 0 0-10.23-7.39 19.91 19.91 0 0 0-14.23 3.34l1.7 2.2q7.71-8.11 15.42-16.25 3.76-4 7.51-8c2.61-2.78 5.34-5.48 7.83-8.36l-2.13-.56c2.53 7.62 8.15 13.79 16 16 1.07.31 1.47-1.27.45-1.64zM922 193.18A28 28 0 0 0 935.73 171 89.83 89.83 0 0 0 975 181.45a32.55 32.55 0 0 0-24.47 19.64 9.45 9.45 0 0 0-16.06 3.75 6.54 6.54 0 0 0-12.32-.3" fill="#6b562f" className="fill-000000"></path><path d="M922.46 193.93A28.66 28.66 0 0 0 937 171l-2 1.12a92.12 92.12 0 0 0 40 10.68l-.36-2.65a34 34 0 0 0-25.45 20.57l2.31-.61a10.84 10.84 0 0 0-18.39 4.35h2.72a8.24 8.24 0 0 0-7.24-5.54 8 8 0 0 0-7.76 5.26c-.52 1.44 1.83 2.44 2.5 1a5.64 5.64 0 0 1 5.09-3.47 5.31 5.31 0 0 1 4.69 3.45 1.42 1.42 0 0 0 2.72 0 8.15 8.15 0 0 1 13.72-3.14 1.4 1.4 0 0 0 2.31-.61 31.31 31.31 0 0 1 23.5-18.71c1.54-.26 1.1-2.6-.36-2.64a89.21 89.21 0 0 1-38.62-10.25 1.31 1.31 0 0 0-2 1.12 27.69 27.69 0 0 1-12.84 21.46.86.86 0 0 0 .87 1.49z" fill="#6b562f" className="fill-000000"></path><g fill="#f5be75" className="fill-18c4ff"><path d="M809.33 222.1a69.5 69.5 0 0 1 6.53-22.34c.48-1-1-1.87-1.5-.87a70.39 70.39 0 0 0-6.57 23.21c-.11 1 1.43 1 1.54 0zM821.77 210.29a69.73 69.73 0 0 0 2.57 12.14.81.81 0 0 0 1.57-.43 95.21 95.21 0 0 1-2.65-11.91c-.12-.84-1.6-.65-1.49.2zM821.68 206.78l.28-.12a.84.84 0 0 0 .39-.22l.14-.18a.83.83 0 0 0 .12-.44.68.68 0 0 0-.08-.34.64.64 0 0 0-.18-.28.75.75 0 0 0-.28-.18.68.68 0 0 0-.34-.08.86.86 0 0 0-.44.12l-.27.16a.73.73 0 0 0-.24.22.8.8 0 0 0-.15.29v.23a.72.72 0 0 0 .07.33.52.52 0 0 0 .11.19.61.61 0 0 0 .24.21l.21.09a.86.86 0 0 0 .45 0zM838.45 175.23q1 2.24 1.69 4.56c.24.76.47 1.52.67 2.3s.37 1.62.62 2.41a.82.82 0 0 0 1.58-.44 29.63 29.63 0 0 0-1.37-4.87q-.82-2.41-1.85-4.74a.79.79 0 0 0-1.06-.28.8.8 0 0 0-.28 1.06zM905.47 160.18a60 60 0 0 0-2.64 13.41c-.11 1.18 1.75 1.18 1.84 0a78.47 78.47 0 0 1 2.29-13 .77.77 0 0 0-1.49-.41zM935.44 200.42c.65-6 1-11.94 1.13-17.93a.88.88 0 0 0-1.75 0c-.13 6-.45 12-1 17.93-.11 1.06 1.54 1 1.65 0zM936 178.54a.78.78 0 0 0 0-1.56.78.78 0 0 0 0 1.56zM937.79 174.14a90.55 90.55 0 0 1 6.78 11.52 127.24 127.24 0 0 1 5.11 12.6.8.8 0 0 0 1.55-.43c-2.37-8.73-6.93-17.11-12.13-24.46-.56-.79-1.87 0-1.31.77zM844.63 229.13c2.09-.29 4.18-.55 6.27-.86a19.9 19.9 0 0 0 5.77-1.35c1.12-.53.14-2.18-1-1.65-1.7.81-3.72.89-5.55 1.19-2 .32-4 .68-6 1a.86.86 0 0 0-.6 1.05.89.89 0 0 0 1 .6zM846.06 233.72a69 69 0 0 0 11.23-1.83c1.19-.28.69-2.14-.51-1.85-3.61.9-7.27 1.5-10.93 2.14-.86.15-.67 1.59.21 1.54zM849.67 237.72l3.06.06a.88.88 0 1 0 0-1.75l-3.06.1a.8.8 0 0 0 0 1.59z"></path></g><path d="M826.93 319.86a118.13 118.13 0 0 1-.57-17.64.59.59 0 0 1 .19-.48.61.61 0 0 1 .44 0 45.35 45.35 0 0 1 19.64 12.42c.15.17.31.41.18.59s-.43-.21-.21-.21" fill="#6b562f" className="fill-000000"></path><path d="M827.76 319.86c0-2.94-.32-5.88-.38-8.81v-6.42c0-.52-.16-1.88.14-2.29l-.71.54c-.31.06-.06 0 .13.12s.53.19.8.28l1.26.47c.94.37 1.88.75 2.8 1.18a47.49 47.49 0 0 1 5.15 2.81 41.46 41.46 0 0 1 4.63 3.37c.77.65 1.53 1.32 2.25 2 .33.31.64.63 1 .95l.58.6c.21.22.24.44.24.09l.57-1-.1.07.85-.11.27.15v1.46l.06-.08c.6-.72.06-2-1-1.67h-.09a1 1 0 0 0-.76 1 1.26 1.26 0 0 0 2.45.41c.51-1.41-1.45-2.79-2.32-3.63a46.94 46.94 0 0 0-7.67-5.94 44.2 44.2 0 0 0-8.73-4.22c-1.17-.41-3.25-1.42-3.9.27a7.91 7.91 0 0 0-.17 2.53v3c0 2.14.11 4.28.25 6.41a42 42 0 0 0 .74 6.63.83.83 0 0 0 1.63-.22zM878.58 308.47a29.31 29.31 0 0 1 15.9-18.55 1.48 1.48 0 0 1 1-.19c.43.12.66.56.84 1A30.5 30.5 0 0 1 898.7 307l-1 .05" fill="#6b562f" className="fill-000000"></path><path d="M879.36 308.68a30.36 30.36 0 0 1 11.29-15.22c.66-.45 1.34-.87 2-1.27a21.47 21.47 0 0 0 2.14-1.09c.33 0 .41-.11.23-.26a3.62 3.62 0 0 1 .25.48c.21.45.38.92.55 1.39.34.91.63 1.83.88 2.77a30 30 0 0 1 .69 11.55l.94-1.23-.92.18c-1.35.24-.9 2.15.3 2.24l1 .1c.75.07 1.21-.66 1.29-1.29a31.91 31.91 0 0 0-.44-10.45 29.52 29.52 0 0 0-1.51-5c-.53-1.34-1.11-3.12-2.87-3.07-1.36 0-3 1.19-4.09 1.88a31.15 31.15 0 0 0-3.54 2.52 29.57 29.57 0 0 0-5.82 6.41 26.93 26.93 0 0 0-3.92 9 .81.81 0 0 0 1.56.43z" fill="#6b562f" className="fill-000000"></path><path d="M889.42 307.29c-7.41-.47-14.79 1-22.06 2.56l-29.11 6.07c-5.4 1.13-11.44 2.69-14.2 7.47-1.73 3-1.76 6.67-1.64 10.14A199.16 199.16 0 0 0 827 370.1c.45 2.08 1.06 4.32 2.76 5.59 1.46 1.1 3.41 1.22 5.24 1.26a152.37 152.37 0 0 0 67.12-13.75c2.94-1.35 6-2.95 7.56-5.78a15.09 15.09 0 0 0 1.42-6.31 126.13 126.13 0 0 0-1.1-27.25c-.64-4.22-1.54-8.54-4-12.06s-6.68-6.07-10.88-5.31" fill="#f5be75" className="fill-18c4ff"></path><path d="M889.42 306.31c-9.83-.66-19.61 1.85-29.18 3.76l-14.6 2.9c-4.28.85-8.67 1.5-12.86 2.75-3.39 1-6.81 2.59-9.06 5.41-2.63 3.3-3 7.49-2.93 11.56a195.18 195.18 0 0 0 3 29.25c.42 2.39.89 4.78 1.39 7.15a19.15 19.15 0 0 0 1.81 5.73c2.29 3.95 7 3.7 11 3.72a154.56 154.56 0 0 0 54.4-9.69 118.86 118.86 0 0 0 12.19-5.18c3.59-1.83 6.58-4.42 7.5-8.49a39 39 0 0 0 .66-7c.1-2.44.14-4.88.09-7.32a124.82 124.82 0 0 0-1.09-14.59c-1.05-7.94-2.91-17.59-11.5-20.61a10.88 10.88 0 0 0-5.43-.42c-1.63.27-.93 2.72.69 2.48 3.57-.54 7.09 1.65 9.13 4.46 2.37 3.25 3.26 7.3 3.87 11.2a123.12 123.12 0 0 1 1.2 27 15.88 15.88 0 0 1-1.17 6.1 9.47 9.47 0 0 1-3.62 3.62 67.57 67.57 0 0 1-11 5 151.15 151.15 0 0 1-49.78 10.3c-2.14.07-4.27.1-6.41.09a20.77 20.77 0 0 1-5.84-.42c-1.82-.56-2.57-2.16-3-3.87-.56-2.05-.93-4.16-1.34-6.24a197.83 197.83 0 0 1-3.31-26.79c-.22-4-.77-8.4.47-12.26 1-3.26 3.82-5.31 6.88-6.54a66.81 66.81 0 0 1 10.72-2.81l13.55-2.95c8.85-1.93 17.8-4.42 26.85-5.18a50.71 50.71 0 0 1 6.75-.13c1.27.06 1.25-1.88 0-2z" fill="#6b562f" className="fill-000000"></path><path d="M823.37 325.68c-.75 3.23 2.48 5.25 4.82 6.73a87.31 87.31 0 0 0 10 5.37c3.27 1.52 6.62 2.86 10 4.14a113.28 113.28 0 0 0 10.81 3.87 15 15 0 0 0 10.65-.53c3-1.44 5.58-3.88 8.13-6A142.83 142.83 0 0 0 893 325a66.42 66.42 0 0 0 7.06-9.39c.93-1.52 2.14-3.25 2.12-5.11a3.41 3.41 0 0 0-2.46-3.31 1.28 1.28 0 0 0-.69 2.47c1.82.56-2.49 6.4-3.06 7.22a65.91 65.91 0 0 1-5.61 7 140.72 140.72 0 0 1-13.22 12.38 71.75 71.75 0 0 1-7 5.66 11.8 11.8 0 0 1-9.06 1.66 67 67 0 0 1-9.22-2.89c-3-1.06-6-2.14-9-3.32a109.3 109.3 0 0 1-10.12-4.55 74.16 74.16 0 0 1-4.75-2.69c-1.31-.82-3.37-2.12-3-3.95.21-1-1.35-1.49-1.59-.44zM821.21 339.25a23 23 0 0 1-15-15.56l-30.85 32.5a18.75 18.75 0 0 1 12.23-3.33 13 13 0 0 1 10.31 6.88 9.5 9.5 0 0 1 18.19-.75 16.17 16.17 0 0 1 1.74-5.35 5.48 5.48 0 0 1 4.6-2.84" fill="#6b562f" className="fill-000000"></path><path d="M821.43 338.43c-6.6-2.39-12.36-8.14-14-15.07a1.29 1.29 0 0 0-2.13-.57c-2.69 2.58-5.19 5.38-7.77 8.07l-7.74 8.14q-7.72 8.1-15.43 16.24c-1.06 1.12.32 3.1 1.7 2.21 3.53-2.29 7.83-3.79 12.08-3a11.63 11.63 0 0 1 8.54 6.1 1.43 1.43 0 0 0 2.58-.34 8.09 8.09 0 0 1 15.47-.75c.43 1.19 2.42 1.49 2.72 0 .55-2.72 1.44-7.13 5-7.24a1.32 1.32 0 0 0 0-2.64c-5 0-6.87 5-7.7 9.13h2.72a10.91 10.91 0 0 0-20.91.75l2.57-.33a14.24 14.24 0 0 0-10.23-7.4 20 20 0 0 0-14.25 3.27l1.7 2.21q7.71-8.13 15.42-16.25c2.51-2.65 5-5.32 7.51-8s5.34-5.48 7.83-8.36L805 324c2.53 7.62 8.15 13.8 16 16a.85.85 0 0 0 .45-1.64zM911.44 323.51a28 28 0 0 0 13.71-22.2 90 90 0 0 0 39.27 10.47A32.55 32.55 0 0 0 940 331.42a9.45 9.45 0 0 0-16.06 3.74 6.54 6.54 0 0 0-12.32-.3" fill="#6b562f" className="fill-000000"></path><path d="M911.88 324.26a28.68 28.68 0 0 0 14.57-22.95l-2 1.12a92.26 92.26 0 0 0 39.93 10.7l-.36-2.65a34 34 0 0 0-25.45 20.57l2.31-.61a10.84 10.84 0 0 0-18.39 4.35h2.72a8.21 8.21 0 0 0-7.24-5.54 8 8 0 0 0-7.76 5.25c-.52 1.45 1.83 2.45 2.5 1.05a5.65 5.65 0 0 1 5.09-3.46 5.29 5.29 0 0 1 4.69 3.45 1.42 1.42 0 0 0 2.72 0A8.15 8.15 0 0 1 939 332.4a1.4 1.4 0 0 0 2.31-.61 31.31 31.31 0 0 1 23.5-18.71c1.54-.27 1.1-2.6-.36-2.65a89.07 89.07 0 0 1-38.62-10.25 1.32 1.32 0 0 0-1.95 1.13A27.68 27.68 0 0 1 911 322.76a.87.87 0 0 0 .87 1.5z" fill="#6b562f" className="fill-000000"></path><g fill="#f5be75" className="fill-18c4ff"><path d="M798.75 352.42a69.51 69.51 0 0 1 6.53-22.33c.48-1-1-1.88-1.5-.88a70.39 70.39 0 0 0-6.57 23.21c-.11 1 1.43 1 1.54 0zM811.19 340.61a69.84 69.84 0 0 0 2.57 12.15.81.81 0 0 0 1.57-.43 95.37 95.37 0 0 1-2.65-11.92c-.12-.83-1.6-.65-1.49.2zM811.1 337.11l.28-.12a.94.94 0 0 0 .39-.22l.14-.18a.88.88 0 0 0 .12-.44.66.66 0 0 0-.08-.34.78.78 0 0 0-.46-.46.68.68 0 0 0-.34-.08.86.86 0 0 0-.44.12l-.27.16a.64.64 0 0 0-.24.22.73.73 0 0 0-.15.29v.23a.71.71 0 0 0 .07.32.4.4 0 0 0 .11.19.64.64 0 0 0 .24.22l.21.09a.86.86 0 0 0 .45 0zM827.88 305.55c.63 1.49 1.19 3 1.68 4.56.24.76.47 1.53.68 2.3s.36 1.62.61 2.41a.82.82 0 0 0 1.58-.43 29.74 29.74 0 0 0-1.37-4.88q-.82-2.4-1.85-4.74a.78.78 0 0 0-1.06-.27.78.78 0 0 0-.27 1.05zM894.89 290.5a60.07 60.07 0 0 0-2.64 13.42c-.11 1.18 1.75 1.18 1.84 0a78.59 78.59 0 0 1 2.29-13 .77.77 0 0 0-1.49-.41zM924.86 330.74c.65-6 1-11.93 1.13-17.93a.88.88 0 0 0-1.75 0c-.13 6-.45 12-1 17.93-.11 1.07 1.54 1.05 1.65 0zM925.4 308.87a.79.79 0 0 0 0-1.57.79.79 0 0 0 0 1.57zM927.21 304.46A90 90 0 0 1 934 316a127.07 127.07 0 0 1 5.11 12.59c.35 1 1.83.59 1.55-.42-2.37-8.74-6.93-17.11-12.13-24.46-.56-.79-1.87-.05-1.31.76zM834.05 359.45c2.09-.28 4.18-.54 6.27-.85a20.23 20.23 0 0 0 5.77-1.35c1.12-.53.15-2.18-1-1.65-1.7.81-3.72.89-5.55 1.19-2 .32-4 .68-6 1a.85.85 0 1 0 .45 1.64zM835.48 364a70.09 70.09 0 0 0 11.23-1.82c1.19-.28.69-2.15-.51-1.85-3.61.9-7.27 1.49-10.93 2.14-.86.15-.67 1.59.21 1.53zM839.09 368.05l3.06.05a.88.88 0 0 0 .88-.87.9.9 0 0 0-.88-.88l-3.06.11a.8.8 0 0 0 0 1.59z"></path></g></svg>