<svg viewBox="0 0 32 32" xmlns="http://www.w3.org/2000/svg"><g data-name="Shield Yes"><path d="M27 6c-8.49 0-11.16-3.54-11.18-3.57A1 1 0 0 0 15 2a1.06 1.06 0 0 0-.83.42S11.49 6 3 6a1 1 0 0 0-1 1v8.76c0 9.25 7.11 12 11.36 13.66l1.26.5a.94.94 0 0 0 .76 0l1.26-.5C20.89 27.77 28 25 28 15.76V7a1 1 0 0 0-1-1Z" fill="#ffeeeb" class="fill-d8e1ef"></path><path d="M15 20a1 1 0 0 1-.71-.29l-3-3a1 1 0 0 1 1.42-1.42l2.43 2.43 13.32-8.56a1 1 0 0 1 1.08 1.68l-14 9A1 1 0 0 1 15 20Z" fill="#df5c43" class="fill-0593ff"></path></g></svg>